<?xml version="1.0" encoding="utf-8"?>
<!-- Generator: Adobe Illustrator 23.0.5, SVG Export Plug-In . SVG Version: 6.00 Build 0)  -->
<svg version="1.1" id="Layer_1" xmlns="http://www.w3.org/2000/svg" xmlns:xlink="http://www.w3.org/1999/xlink" x="0px" y="0px"
	 viewBox="0 0 440 305" style="enable-background:new 0 0 440 305;" xml:space="preserve">
<style type="text/css">
	.st0{fill:url(#SVGID_1_);}
	.st2{fill:url(#SVGID_2_);}
	.st3{fill:url(#SVGID_3_);}
	.sig1{
			stroke-dasharray: 800;
			stroke-dashoffset: 800;
			-webkit-animation: dash 1s linear forwards 0.5s;
			-o-animation: dash 1s linear forwards 0.5s;
			-moz-animation: dash 1s linear forwards 0.5s;
			animation: dash 1s linear forwards 0.5s;
		}
	.sig2{
			stroke-dasharray: 800;
			stroke-dashoffset: 800;
			-webkit-animation: dash 1s linear forwards 0.7s;
			-o-animation: dash 1s linear forwards 0.7s;
			-moz-animation: dash 1s linear forwards 0.7s;
			animation: dash 1s linear forwards 0.7s;
		}
	.sig3{
			stroke-dasharray: 800;
			stroke-dashoffset: 800;
			-webkit-animation: dash 1s linear forwards 0.9s;
			-o-animation: dash 1s linear forwards 0.9s;
			-moz-animation: dash 1s linear forwards 0.9s;
			animation: dash 1s linear forwards 0.9s;
		}
	.sig4{
			stroke-dasharray: 800;
			stroke-dashoffset: 800;
			-webkit-animation: dash 1s linear forwards 1.1s;
			-o-animation: dash 1s linear forwards 1.1s;
			-moz-animation: dash 1s linear forwards 1.1s;
			animation: dash 1s linear forwards 1.1s;
		}
	.sig5{
			stroke-dasharray: 800;
			stroke-dashoffset: 800;
			-webkit-animation: dash 1s linear forwards 1.3s;
			-o-animation: dash 1s linear forwards 1.3s;
			-moz-animation: dash 1s linear forwards 1.3s;
			animation: dash 1s linear forwards 1.3s;
		}
	.sig6{
			stroke-dasharray: 800;
			stroke-dashoffset: 800;
			-webkit-animation: dash 1s linear forwards 1.5s;
			-o-animation: dash 1s linear forwards 1.5s;
			-moz-animation: dash 1s linear forwards 1.5s;
			animation: dash 1s linear forwards 1.5s;
		}
	.sig7{
			stroke-dasharray: 800;
			stroke-dashoffset: 800;
			-webkit-animation: dash 1s linear forwards 1.7s;
			-o-animation: dash 1s linear forwards 1.7s;
			-moz-animation: dash 1s linear forwards 1.7s;
			animation: dash 1s linear forwards 1.7s;
		}
	.sig8{
			stroke-dasharray: 800;
			stroke-dashoffset: 800;
			-webkit-animation: dash 1s linear forwards 1.9s;
			-o-animation: dash 1s linear forwards 1.9s;
			-moz-animation: dash 1s linear forwards 1.9s;
			animation: dash 1s linear forwards 1.9s;
		}
	.sig9{
			stroke-dasharray: 800;
			stroke-dashoffset: 800;
			-webkit-animation: dash 1s linear forwards 2.1s;
			-o-animation: dash 1s linear forwards 2.1s;
			-moz-animation: dash 1s linear forwards 2.1s;
			animation: dash 1s linear forwards 2.1s;
		}
	.sig10{
			stroke-dasharray: 800;
			stroke-dashoffset: 800;
			-webkit-animation: dash 1s linear forwards 2.3s;
			-o-animation: dash 1s linear forwards 2.3s;
			-moz-animation: dash 1s linear forwards 2.3s;
			animation: dash 1s linear forwards 2.3s;
		}
	.sig11{
			stroke-dasharray: 800;
			stroke-dashoffset: 800;
			-webkit-animation: dash 1s linear forwards 2.5s;
			-o-animation: dash 1s linear forwards 2.5s;
			-moz-animation: dash 1s linear forwards 2.5s;
			animation: dash 1s linear forwards 2.5s;
		}
	.sig12{
			stroke-dasharray: 800;
			stroke-dashoffset: 800;
			-webkit-animation: dash 1s linear forwards 2.7s;
			-o-animation: dash 1s linear forwards 2.7s;
			-moz-animation: dash 1s linear forwards 2.7s;
			animation: dash 1s linear forwards 2.7s;
		}
	.sig13{
			stroke-dasharray: 800;
			stroke-dashoffset: 800;
			-webkit-animation: dash 1s linear forwards 2.9s;
			-o-animation: dash 1s linear forwards 2.9s;
			-moz-animation: dash 1s linear forwards 2.9s;
			animation: dash 1s linear forwards 2.9s;
		}
	.sig_big{
			stroke-dasharray: 800;
			stroke-dashoffset: 800;
			-webkit-animation: dash 1s linear forwards 1s;
			-o-animation: dash 1s linear forwards 1s;
			-moz-animation: dash 1s linear forwards 1s;
			animation: dash 1s linear forwards 1s;
	    }
	.st0{
			opacity: 0;
			<!-- stroke-dasharray: 800;
			stroke-dashoffset: 800; -->
			<!-- -webkit-animation: dash 4s linear forwards 2s;
			-o-animation: dash 4s linear forwards 2s;
			-moz-animation: dash 4s linear forwards 2s;
			animation: dash 4s linear forwards 2s; -->
			-webkit-animation: fadein 2s linear forwards 2.5s;
			-o-animation: fadein 2s linear forwards 2.5s;
			-moz-animation: fadein 2s linear forwards 2.5s;
			animation: fadein 2s linear forwards 2.5s;
		}
	.st2{
			opacity: 0;
			<!-- stroke-dasharray: 800;
			stroke-dashoffset: 800; -->
			<!-- -webkit-animation: dash 4s linear forwards 2s;
			-o-animation: dash 4s linear forwards 2s;
			-moz-animation: dash 4s linear forwards 2s;
			animation: dash 4s linear forwards 2s; -->
			-webkit-animation: fadein 2s linear forwards 2.5s;
			-o-animation: fadein 2s linear forwards 2.5s;
			-moz-animation: fadein 2s linear forwards 2.5s;
			animation: fadein 2s linear forwards 2.5s;
		}
	.st3{
			opacity: 0;
			<!-- stroke-dasharray: 800;
			stroke-dashoffset: 800; -->
			<!-- -webkit-animation: dash 4s linear forwards 2s;
			-o-animation: dash 4s linear forwards 2s;
			-moz-animation: dash 4s linear forwards 2s;
			animation: dash 4s linear forwards 2s; -->
			-webkit-animation: fadein 2s linear forwards 2.5s;
			-o-animation: fadein 2s linear forwards 2.5s;
			-moz-animation: fadein 2s linear forwards 2.5s;
			animation: fadein 2s linear forwards 2.5s;
		}
	@-webkit-keyframes fadein{
			from{
				<!-- stroke-dashoffset: 800; -->
				opacity: 0;
			}
			to{
				<!-- stroke-dashoffset: 0; -->
				opacity: 1;
			}
		}
	@-webkit-keyframes dash{
			from{
				stroke-dashoffset: 800;
			}
			to{
				stroke-dashoffset: 0;
			}
		}												
</style>
<g>
	
		<linearGradient id="SVGID_1_" gradientUnits="userSpaceOnUse" x1="140.1754" y1="113.0738" x2="277.1597" y2="113.0738" gradientTransform="matrix(1.007 -1.193156e-03 1.465379e-05 1.1516 -0.9283 -9.9216)">
		<stop  offset="0" style="stop-color:#7F47DD"/>
		<stop  offset="0.5169" style="stop-color:#FBAE17"/>
		<stop  offset="1" style="stop-color:#FBAE17"/>
	</linearGradient>
	<path class="st0" d="M274.81,67.75c-40.22-0.33-80.44-0.67-120.67-1c-4.52-0.04-9.8,0.42-12.35,5.32
		c-1.64,3.15-1.62,7.24-1.54,11.05c0.26,12.5,0.52,25.01,0.79,37.51c41.63-0.61,83.25-1.23,124.88-1.84
		c3.89-0.06,8.39,0.27,10.69,4.37c1.6,2.85,1.6,6.68,1.54,10.22c-0.21,11.89-0.42,23.78-0.63,35.67
		c-45.12,1.48-90.25,2.95-135.37,4.43" stroke-width="3"/>
	<g>
		<path class="sig_big" d="M274.81,64.75c-25.6-0.21-51.19-0.42-76.79-0.64c-12.8-0.11-25.6-0.21-38.39-0.32
			c-5.01-0.04-10.41-0.57-15.09,1.63c-5.08,2.39-6.92,7.73-7.25,12.98c-0.21,3.37,0,6.77,0.07,10.14c0.07,3.46,0.14,6.91,0.22,10.37
			c0.15,7.24,0.3,14.48,0.46,21.72c0.03,1.6,1.35,3.02,3,3c24.56-0.36,49.12-0.72,73.68-1.09c12.24-0.18,24.48-0.36,36.71-0.54
			c3.16-0.05,6.33-0.09,9.49-0.14c2.52-0.04,5.06-0.19,7.57-0.02c1.43,0.1,3.37,0.55,4.34,1.39c1.5,1.3,2.05,3.37,2.22,5.42
			c0.26,3.13,0.06,6.31,0,9.44c-0.06,3.39-0.12,6.77-0.18,10.16c-0.12,6.94-0.24,13.87-0.37,20.81c1-1,2-2,3-3
			c-17.57,0.57-35.13,1.15-52.7,1.72c-17.65,0.58-35.3,1.15-52.95,1.73c-9.91,0.32-19.81,0.65-29.72,0.97c-3.85,0.13-3.87,6.13,0,6
			c17.57-0.57,35.13-1.15,52.7-1.72c17.65-0.58,35.3-1.15,52.95-1.73c9.91-0.32,19.81-0.65,29.72-0.97c1.64-0.05,2.97-1.33,3-3
			c0.22-12.46,0.65-24.93,0.65-37.39c0-5.34-0.98-11.4-6.16-14.17c-4.53-2.42-10.15-1.69-15.08-1.62
			c-25.31,0.37-50.62,0.75-75.93,1.12c-14.32,0.21-28.64,0.42-42.96,0.63c1,1,2,2,3,3c-0.26-12.34-0.52-24.68-0.78-37.02
			c-0.05-2.49-0.19-5.08,0.32-7.53c0.22-1.06,0.52-2.05,1.07-2.98c0.26-0.44,0.43-0.66,0.67-0.93c0.15-0.16,0.31-0.31,0.47-0.47
			c0.42-0.39-0.03-0.03,0.4-0.33c1.4-0.97,3.32-1.41,4.79-1.53c2.45-0.21,4.94-0.08,7.4-0.06c24.85,0.21,49.7,0.41,74.54,0.62
			c13.96,0.12,27.92,0.23,41.88,0.35C278.67,70.78,278.67,64.78,274.81,64.75L274.81,64.75z" stroke="#27003E" stroke-width="3"/>
	</g>
</g>
<g>
	<g>
		<linearGradient id="SVGID_2_" gradientUnits="userSpaceOnUse" x1="155.9976" y1="46.3181" x2="261.9975" y2="46.3181">
			<stop  offset="0" style="stop-color:#7F47DD"/>
			<stop  offset="0.5169" style="stop-color:#FBAE17"/>
			<stop  offset="1" style="stop-color:#FBAE17"/>
		</linearGradient>
		<path class="st2" d="M156,51.42c35.33-0.07,70.67-0.13,106-0.2c6.43-0.01,6.45-10.01,0-10c-35.33,0.07-70.67,0.13-106,0.2
			C149.56,41.43,149.55,51.43,156,51.42L156,51.42z" stroke-width="3"/>
	</g>
</g>
<g>
	<g>
		<linearGradient id="SVGID_3_" gradientUnits="userSpaceOnUse" x1="164.5" y1="122.3003" x2="211.5" y2="122.3003">
			<stop  offset="0" style="stop-color:#7F47DD"/>
			<stop  offset="0.5169" style="stop-color:#FBAE17"/>
			<stop  offset="1" style="stop-color:#FBAE17"/>
		</linearGradient>
		<path class="st3" d="M205.47,53.65c0.01,30.61,0.01,61.23,0.02,91.84c0,7.65,0,15.31,0,22.96c0,3.83,0,7.65,0,11.48
			c0,0.85,0,1.69-0.03,2.54c-0.02,0.41-0.05,0.82-0.08,1.23c-0.09,1.24,0.18-0.5-0.04,0.2c-0.1,0.31-0.13,0.65-0.22,0.96
			c-0.06,0.21-0.58,1.21-0.1,0.36c-0.09,0.17-0.79,1.12-0.12,0.34c-0.22,0.26-0.47,0.5-0.73,0.73c0.95-0.81-0.02,0.06-0.19,0.01
			c0.16-0.06,0.32-0.13,0.48-0.19c-0.2,0.08-0.41,0.15-0.62,0.21c-0.27,0.08-0.69,0.23-0.97,0.21c1.03,0.08,0.36-0.06,0.01-0.05
			c-0.64,0.03-1.27,0.01-1.91-0.04c-0.34-0.03-0.7-0.05-1.04-0.11c1.15,0.21,0.1,0-0.17-0.05c-3.66-0.62-7.31-1.31-10.97-1.96
			c-3.52-0.63-7.19-1.04-10.61-2.07c-0.42-0.13-0.85-0.26-1.26-0.43c0.71,0.29-0.27-0.15-0.34-0.19c-0.54-0.29-1.02-0.66-1.54-0.97
			c-0.55-0.32,0.75,0.71,0-0.03c-0.24-0.24-0.5-0.45-0.74-0.69c-0.24-0.24-0.47-0.49-0.7-0.75c-0.29-0.33-0.59-0.78-0.16-0.16
			c-0.47-0.67-0.92-1.35-1.31-2.07c-0.17-0.31-0.32-0.63-0.48-0.95c-0.52-1.05,0.28,0.86-0.1-0.24c-0.28-0.8-0.54-1.59-0.73-2.41
			c-0.07-0.29-0.13-0.59-0.18-0.89c-0.21-1.19-0.02,0.51-0.06-0.42c-0.04-0.85-0.1-1.69-0.05-2.54c0.01-0.24,0.04-0.48,0.05-0.72
			c0.06-0.52,0.05-0.48-0.02,0.11c0.04-0.25,0.09-0.51,0.14-0.76c0.18-0.85,0.42-1.69,0.72-2.51c0.08-0.21,0.44-1.01,0.07-0.22
			c0.22-0.48,0.45-0.95,0.71-1.42c0.38-0.69,0.82-1.34,1.26-1.99c0.7-1.04-0.58,0.61,0.25-0.32c0.34-0.38,0.67-0.78,1.03-1.15
			c0.53-0.55,1.09-1.07,1.69-1.55c-0.79,0.63,0.22-0.13,0.33-0.2c0.43-0.28,0.87-0.54,1.32-0.77c0,0,1.13-0.51,0.5-0.25
			c-0.52,0.21,0.74-0.24,0.87-0.28c0.36-0.1,0.71-0.17,1.07-0.26c0.52-0.09,0.48-0.08-0.12,0.01c0.24-0.02,0.48-0.03,0.71-0.03
			c0.09,0,0.7-0.01,0.71,0.02c-0.61-0.1-0.66-0.11-0.15-0.02c0.23,0.05,0.46,0.1,0.68,0.17c1.01,0.18-0.65-0.47,0.24,0.08
			c0.43,0.26,0.84,0.5,1.24,0.8c1.89,1.42,5.11,0.36,6.16-1.61c1.25-2.37,0.4-4.64-1.61-6.16c-6.44-4.86-15.35-1.31-20.28,3.96
			c-5.22,5.58-7.56,13.07-6.13,20.59c1.31,6.86,5.96,12.97,12.53,15.46c3.6,1.37,7.62,1.74,11.39,2.42c3.93,0.7,7.85,1.47,11.79,2.1
			c3.65,0.59,7.44,0.83,10.83-0.94c3.94-2.07,5.46-6.21,5.86-10.38c0.38-3.87,0.11-7.87,0.11-11.75c0-4.16,0-8.32,0-12.48
			c0-16.64-0.01-33.28-0.01-49.91c0-18.63-0.01-37.27-0.01-55.9c0-2.35-2.07-4.61-4.5-4.5C207.54,49.25,205.47,51.12,205.47,53.65
			L205.47,53.65z" stroke-width="3"/>
	</g>
</g>	
<g>
	<g>
		<path class="sig1" d="M74.05,225.06c-6.86-1.7-14.62-0.6-20.49,3.44c-2.79,1.92-5.21,4.55-6.2,7.86c-0.95,3.15-0.11,6.53,2.41,8.7
			c6.23,5.35,14.86,2.22,22.05,4.34c2.59,0.76,6.33,2.88,5.55,6.14c-0.7,2.94-4.34,4.7-6.83,5.82c-4.16,1.88-8.62,3.28-12.98,4.62
			c-4.72,1.44-9.5,2.65-14.32,3.66c-1.89,0.4-1.09,3.29,0.8,2.89c8.25-1.73,16.37-4.06,24.25-7.05c5-1.9,14.14-5.69,11.89-12.71
			c-1-3.13-4.06-5.09-7.02-6.09c-3.85-1.31-8.06-0.98-12.06-1.13c-3.24-0.13-7.14-0.57-9.59-2.95c-2.5-2.43-1.56-5.94,0.31-8.45
			c4.67-6.25,14.25-7.98,21.43-6.19C75.12,228.41,75.92,225.52,74.05,225.06L74.05,225.06z" stroke="#27003E" stroke-width="3"/>
	</g>
</g>
<g>
	<g>
		<path class="sig2" d="M103.12,247.86c-6.52-3.77-17.52-2.61-19.64,5.89c-0.93,3.72,0.93,7.27,4.11,9.23
			c3.36,2.08,7.63,1.98,10.95-0.15c4.26-2.74,5.72-7.46,6.74-12.15c-0.96-0.27-1.93-0.53-2.89-0.8c-0.57,3.37-0.92,7.01,1.5,9.78
			c2.03,2.32,5.69,3.06,8.35,1.39c1.63-1.02,0.13-3.62-1.51-2.59c-1.67,1.05-3.85,0.36-4.93-1.21c-1.31-1.92-0.88-4.42-0.52-6.57
			c0.31-1.87-2.48-2.71-2.89-0.8c-0.86,3.99-1.91,8.33-5.68,10.56c-3.2,1.89-7.61,1.16-9.69-2.07c-2.03-3.16,0.24-6.87,3.16-8.48
			c3.51-1.94,8.07-1.4,11.44,0.55C103.28,251.42,104.79,248.82,103.12,247.86L103.12,247.86z" stroke="#27003E" stroke-width="3"/>
	</g>
</g>
<g>
	<g>
		<path class="sig3" d="M118.02,247.97c-0.91,3.12-1.67,6.44-0.15,9.49c1.24,2.51,3.83,4.04,6.62,4.02c2.7-0.02,5.45-1.35,7.2-3.39
			c2.08-2.44,2.8-5.55,3.38-8.63c-0.98-0.13-1.96-0.27-2.95-0.4c-0.08,7.02,2.7,15-1.36,21.41c-3.34,5.28-10.99,6.42-16.22,3.38
			c-1.67-0.97-3.18,1.62-1.51,2.59c6.14,3.57,14.95,2.48,19.44-3.23c5.57-7.09,2.55-16.01,2.65-24.15c0.02-1.65-2.63-2.1-2.95-0.4
			c-0.77,4.15-2.09,9.12-7.03,9.78c-1.91,0.25-3.72-0.61-4.6-2.35c-1.18-2.31-0.3-5.01,0.38-7.33
			C121.45,246.91,118.55,246.11,118.02,247.97L118.02,247.97z" stroke="#27003E" stroke-width="3"/>
	</g>
</g>
<g>
	<g>
		<path class="sig4" d="M173.6,250.51c0.47-1.23,1.41-3.39,3.13-2.94c1.05,0.28,1.18,1.7,1.21,2.6c0.14,3.96-0.09,7.97-0.14,11.93
			c0.98-0.13,1.96-0.27,2.95-0.4c-0.76-3.15-0.28-6.44,1.33-9.25c1.42-2.48,4.38-5.32,7.51-3.94c2.57,1.14,1.74,4.73,1.66,6.92
			c-0.1,2.78,0.6,5.6,3.16,7.09c1.67,0.97,3.18-1.62,1.51-2.59c-2.76-1.61-1.34-5.75-1.52-8.32c-0.26-3.63-2.62-6.43-6.45-6.4
			c-3.87,0.03-6.89,2.82-8.64,6.06c-1.86,3.45-2.37,7.43-1.45,11.23c0.4,1.67,2.93,1.28,2.95-0.4c0.04-2.88,0.07-5.77,0.11-8.65
			c0.03-2.15,0.3-4.51-0.68-6.51c-0.92-1.88-2.99-2.73-5-2.25c-2.5,0.6-3.68,2.81-4.52,5.03
			C170.02,251.52,172.92,252.3,173.6,250.51L173.6,250.51z" stroke="#27003E" stroke-width="3"/>
	</g>
</g>
<g>
	<g>
		<path class="sig5" d="M205.25,230.7c-0.32,8.8-0.64,17.6-0.96,26.4c-0.12,3.32,0.18,6.92,3.96,7.99c3.23,0.91,6.93-1.23,6.9-4.78
			c-0.02-1.93-3.02-1.93-3,0c0.03,2.73-4.21,2.49-4.78,0.11c-0.31-1.3-0.1-2.75-0.05-4.07c0.06-1.74,0.13-3.49,0.19-5.23
			c0.25-6.81,0.49-13.62,0.74-20.43C208.32,228.77,205.32,228.77,205.25,230.7L205.25,230.7z" stroke="#27003E" stroke-width="3"/>
	</g>
</g>
<g>
	<g>
		<path class="sig6" d="M202.36,252.75c4.06-4.92,9.57-8.44,15.63-10.38c1.83-0.59,1.05-3.48-0.8-2.89
			c-6.52,2.09-12.57,5.84-16.96,11.15c-0.52,0.62-0.61,1.51,0,2.12C200.77,253.28,201.84,253.38,202.36,252.75L202.36,252.75z" stroke="#27003E" stroke-width="3"/>
	</g>
</g>
<g>
	<g>
		<path class="sig7" d="M296.08,237.83c-0.29-2.97,3.34-4.3,5.68-4.75c3.3-0.63,6.69-0.51,9.99-1.2c5.99-1.24,11.65-4.07,16.12-8.24
			c-0.79-0.61-1.57-1.21-2.36-1.82c-5.48,7.15-9.64,15.32-11.99,24.03c-1.16,4.3-1.38,9.12-3.56,13.08
			c-1.77,3.22-4.82,5.43-8.57,5.38c-3.27-0.04-7.26-1.68-8.49-4.96c-0.67-1.79-3.57-1.02-2.89,0.8c2.76,7.39,13.18,9.22,19.03,4.53
			c3.77-3.02,5.17-7.66,6.07-12.21c0.98-4.94,2.28-9.76,4.28-14.4c2.27-5.26,5.23-10.19,8.71-14.73c1.07-1.4-1.16-2.93-2.36-1.82
			c-4.82,4.49-11.2,7.23-17.73,7.93c-3.5,0.38-7.2,0.24-10.45,1.81c-2.48,1.2-4.78,3.62-4.49,6.56
			C293.27,239.74,296.27,239.76,296.08,237.83L296.08,237.83z" stroke="#27003E" stroke-width="3"/>
	</g>
</g>
<g>
	<g>
		<path class="sig8" d="M161.39,247.86c-6.52-3.77-17.52-2.61-19.64,5.89c-0.93,3.72,0.93,7.27,4.11,9.23
			c3.36,2.08,7.63,1.98,10.95-0.15c4.26-2.74,5.72-7.46,6.74-12.15c-0.96-0.27-1.93-0.53-2.89-0.8c-0.57,3.37-0.92,7.01,1.5,9.78
			c2.03,2.32,5.69,3.06,8.35,1.39c1.63-1.02,0.13-3.62-1.51-2.59c-1.67,1.05-3.85,0.36-4.93-1.21c-1.31-1.92-0.88-4.42-0.52-6.57
			c0.31-1.87-2.48-2.71-2.89-0.8c-0.86,3.99-1.91,8.33-5.68,10.56c-3.2,1.89-7.61,1.16-9.69-2.07c-2.03-3.16,0.24-6.87,3.16-8.48
			c3.51-1.94,8.07-1.4,11.44,0.55C161.55,251.42,163.06,248.82,161.39,247.86L161.39,247.86z" stroke="#27003E" stroke-width="3"/>
	</g>
</g>
<g>
	<g>
		<path class="sig9" d="M239.39,247.04c-6.52-3.77-17.52-2.61-19.64,5.89c-0.93,3.72,0.93,7.27,4.11,9.23
			c3.36,2.08,7.63,1.98,10.95-0.15c4.26-2.74,5.72-7.46,6.74-12.15c-0.96-0.27-1.93-0.53-2.89-0.8c-0.57,3.37-0.92,7.01,1.5,9.78
			c2.03,2.32,5.69,3.06,8.35,1.39c1.63-1.02,0.13-3.62-1.51-2.59c-1.67,1.05-3.85,0.36-4.93-1.21c-1.31-1.92-0.88-4.42-0.52-6.57
			c0.31-1.87-2.48-2.71-2.89-0.8c-0.86,3.99-1.91,8.33-5.68,10.56c-3.2,1.89-7.61,1.16-9.69-2.07c-2.03-3.16,0.24-6.87,3.16-8.48
			c3.51-1.94,8.07-1.4,11.44,0.55C239.55,250.6,241.07,248.01,239.39,247.04L239.39,247.04z" stroke="#27003E" stroke-width="3"/>
	</g>
</g>
<g>
	<g>
		<path class="sig10" d="M248.79,250.51c0.47-1.23,1.41-3.39,3.13-2.94c1.05,0.28,1.18,1.7,1.21,2.6c0.14,3.96-0.09,7.97-0.14,11.93
			c0.98-0.13,1.96-0.27,2.95-0.4c-0.76-3.15-0.28-6.44,1.33-9.25c1.42-2.48,4.38-5.32,7.51-3.94c2.57,1.14,1.74,4.73,1.66,6.92
			c-0.1,2.78,0.6,5.6,3.16,7.09c1.67,0.97,3.18-1.62,1.51-2.59c-2.76-1.61-1.34-5.75-1.52-8.32c-0.26-3.63-2.62-6.43-6.45-6.4
			c-3.87,0.03-6.89,2.82-8.64,6.06c-1.86,3.45-2.37,7.43-1.45,11.23c0.4,1.67,2.93,1.28,2.95-0.4c0.04-2.88,0.07-5.77,0.11-8.65
			c0.03-2.15,0.3-4.51-0.68-6.51c-0.92-1.88-2.99-2.73-5-2.25c-2.5,0.6-3.68,2.81-4.52,5.03
			C245.21,251.52,248.11,252.3,248.79,250.51L248.79,250.51z" stroke="#27003E" stroke-width="3"/>
	</g>
</g>
<g>
	<g>
		<path class="sig11" d="M347.47,250.51c0.47-1.23,1.41-3.39,3.13-2.94c1.05,0.28,1.18,1.7,1.21,2.6c0.14,3.96-0.09,7.97-0.14,11.93
			c0.98-0.13,1.96-0.27,2.95-0.4c-0.76-3.15-0.28-6.44,1.33-9.25c1.42-2.48,4.38-5.32,7.51-3.94c2.57,1.14,1.74,4.73,1.66,6.92
			c-0.1,2.78,0.6,5.6,3.16,7.09c1.67,0.97,3.18-1.62,1.51-2.59c-2.76-1.61-1.34-5.75-1.52-8.32c-0.26-3.63-2.62-6.43-6.45-6.4
			c-3.87,0.03-6.89,2.82-8.64,6.06c-1.86,3.45-2.37,7.43-1.45,11.23c0.4,1.67,2.93,1.28,2.95-0.4c0.04-2.88,0.07-5.77,0.11-8.65
			c0.03-2.15,0.3-4.51-0.68-6.51c-0.92-1.88-2.99-2.73-5-2.25c-2.5,0.6-3.68,2.81-4.52,5.03
			C343.89,251.52,346.79,252.3,347.47,250.51L347.47,250.51z" stroke="#27003E" stroke-width="3"/>
	</g>
</g>
<g>
	<g>
		<path class="sig12" d="M391.65,247.04c-6.52-3.77-17.52-2.61-19.64,5.89c-0.93,3.72,0.93,7.27,4.11,9.23
			c3.36,2.08,7.63,1.98,10.95-0.15c4.26-2.74,5.72-7.46,6.74-12.15c-0.96-0.27-1.93-0.53-2.89-0.8c-0.57,3.37-0.92,7.01,1.5,9.78
			c2.03,2.32,5.69,3.06,8.35,1.39c1.63-1.02,0.13-3.62-1.51-2.59c-1.67,1.05-3.85,0.36-4.93-1.21c-1.31-1.92-0.88-4.42-0.52-6.57
			c0.31-1.87-2.48-2.71-2.89-0.8c-0.86,3.99-1.91,8.33-5.68,10.56c-3.2,1.89-7.61,1.16-9.69-2.07c-2.03-3.16,0.24-6.87,3.16-8.48
			c3.51-1.94,8.07-1.4,11.44,0.55C391.81,250.6,393.32,248.01,391.65,247.04L391.65,247.04z" stroke="#27003E" stroke-width="3"/>
	</g>
</g>
<g>
	<g>
		<path class="sig13" d="M339.02,247.04c-6.52-3.77-17.52-2.61-19.64,5.89c-0.93,3.72,0.93,7.27,4.11,9.23
			c3.36,2.08,7.63,1.98,10.95-0.15c4.26-2.74,5.72-7.46,6.74-12.15c-0.96-0.27-1.93-0.53-2.89-0.8c-0.57,3.37-0.92,7.01,1.5,9.78
			c2.03,2.32,5.69,3.06,8.35,1.39c1.63-1.02,0.13-3.62-1.51-2.59c-1.67,1.05-3.85,0.36-4.93-1.21c-1.31-1.92-0.88-4.42-0.52-6.57
			c0.31-1.87-2.48-2.71-2.89-0.8c-0.86,3.99-1.91,8.33-5.68,10.56c-3.2,1.89-7.61,1.16-9.69-2.07c-2.03-3.16,0.24-6.87,3.16-8.48
			c3.51-1.94,8.07-1.4,11.44,0.55C339.18,250.6,340.69,248.01,339.02,247.04L339.02,247.04z" stroke="#27003E" stroke-width="3"/>
	</g>
</g>
</svg>
