<?xml version="1.0" encoding="utf-8"?>
<!-- Generator: Adobe Illustrator 23.0.5, SVG Export Plug-In . SVG Version: 6.00 Build 0)  -->
<svg version="1.1" id="Layer_1" xmlns="http://www.w3.org/2000/svg" xmlns:xlink="http://www.w3.org/1999/xlink" x="0px" y="0px"
	 viewBox="0 0 440 305" style="enable-background:new 0 0 440 305;" xml:space="preserve">
<style type="text/css">
	.st0{fill:none;}
	.st1{fill:#00BAC6;}
	.st2{fill:#FFD400;}
	.st3{fill:#A6CE39;}
	.st4{fill:#ED1C24;}
	.st5{fill:none;stroke:#61587D;}
	.st6{fill:url(#SVGID_1_);}
	.st7{fill:url(#Bugaboo);}
	.st8{fill:#004C45;}
	.st9{fill:url(#SVGID_2_);}
</style>
<pattern  width="334.21" height="190.18" patternUnits="userSpaceOnUse" id="Bugaboo" viewBox="125.73 -361.64 334.21 190.18" style="overflow:visible;">
	<g>
		<rect x="125.73" y="-361.64" class="st0" width="334.21" height="190.18"/>
		<g>
			<path class="st1" d="M438.31-133.57c-1.04,2.91-4.25,4.42-7.17,3.38c-0.67-0.24-16.58-8.97-32.58-16.6
				c-0.45,1.05-1.02,2.03-1.72,2.9c0,0,46.42,49.04,47.57,50.41c0.96,1.14,1.42,2.59,1.3,4.08c-0.13,1.5-0.83,2.84-1.97,3.81
				c-1.15,0.96-2.6,1.43-4.09,1.3c-1.49-0.13-2.84-0.83-3.81-1.97c-1.14-1.36-42.26-54.73-42.26-54.73
				c-1.18,0.74-2.47,1.29-3.85,1.62c0,0,1.09,30.92,1.05,32.47c-0.04,1.5-0.66,2.89-1.75,3.92c-1.08,1.03-2.5,1.57-4,1.54
				c-0.11-0.01-0.22-0.01-0.33-0.02c-2.95-0.25-5.2-2.77-5.13-5.73c0.04-1.54,4.53-32.11,4.53-32.11c-1.13-0.24-2.19-0.61-3.18-1.12
				c0,0-25.19,44.38-26.41,46.15c-1.14,1.65-3.09,2.57-5.09,2.4c-0.97-0.08-1.9-0.42-2.71-0.97c-1.23-0.85-2.06-2.13-2.33-3.6
				c-0.27-1.47,0.05-2.96,0.9-4.19c1.22-1.76,33.46-41.18,33.46-41.18c-0.42-0.34-0.82-0.72-1.2-1.12
				c-10.19,10.77-25.46,26.88-26.31,27.59c-2.36,1.99-5.9,1.7-7.9-0.67c-1.99-2.36-1.69-5.9,0.67-7.89
				c0.85-0.71,19.42-13.14,31.75-21.38c-0.13-0.21-0.26-0.42-0.38-0.63c0,0-45.47,18.23-47.22,18.79c-0.71,0.23-1.44,0.31-2.18,0.25
				c-2.26-0.19-4.17-1.71-4.86-3.87c-0.46-1.42-0.33-2.94,0.35-4.27c0.69-1.33,1.85-2.32,3.27-2.77
				c1.74-0.56,49.34-11.99,49.34-11.99c-0.17-1.02-0.22-2.07-0.13-3.15c0.03-0.29,0.07-0.58,0.12-0.87c0,0-37.52-6.63-39.4-7.17
				c-2.97-0.84-4.7-3.95-3.86-6.92c0.73-2.57,3.19-4.28,5.86-4.05c0.36,0.03,0.72,0.09,1.06,0.19c1.88,0.54,37.31,14.63,37.31,14.63
				c0.67-1.48,1.61-2.81,2.75-3.92c0,0-44.09-46.31-45.48-47.95c-0.97-1.14-1.43-2.6-1.3-4.09c0.13-1.49,0.83-2.84,1.97-3.81
				c1.15-0.96,2.6-1.43,4.09-1.3c1.49,0.13,2.84,0.83,3.81,1.97c1.39,1.64,38.94,53.56,38.94,53.56c0.54-0.35,1.11-0.64,1.69-0.91
				c-7.19-15.74-19.53-42.79-19.76-43.49c-1-2.92,0.56-6.12,3.48-7.12c2.92-1,6.12,0.55,7.12,3.48c0.24,0.69,7.27,29.59,11.36,46.4
				c0.89-0.22,1.8-0.38,2.75-0.4c0,0-1.11-31.09-0.95-32.98c0.26-3.08,2.98-5.37,6.06-5.11c3.08,0.26,5.37,2.98,5.11,6.06
				c-0.16,1.9-6.51,32.49-6.51,32.49c1.12,0.31,2.16,0.76,3.13,1.34c0,0,26.37-46.34,27.59-48.13c1.14-1.66,3.09-2.59,5.1-2.42
				c0.96,0.08,1.89,0.41,2.69,0.96c2.55,1.75,3.2,5.24,1.46,7.79c-1.22,1.79-34.82,43.27-34.82,43.27c1.43,1.28,2.57,2.87,3.31,4.65
				c0,0,45.03-11.79,46.58-12.08c0.5-0.09,1.01-0.12,1.51-0.07c2.5,0.21,4.57,2.08,5.03,4.55c0.28,1.47-0.04,2.96-0.88,4.2
				c-0.85,1.23-2.12,2.06-3.59,2.34c-1.55,0.29-47.68,6.42-47.68,6.42c-0.01,0.21-0.01,0.42-0.03,0.64
				c-0.05,0.56-0.15,1.1-0.26,1.64c17.11,4.53,34.93,8.16,35.61,8.4C437.83-139.69,439.35-136.48,438.31-133.57z M396-151.08
				c0.43-5.09-3.36-9.58-8.45-10.01c-5.09-0.43-9.58,3.36-10.01,8.45c-0.43,5.09,3.36,9.58,8.45,10.01
				C391.08-142.2,395.57-145.99,396-151.08z"/>
			<path class="st2" d="M382.86-142.55c-2.3-3.97-0.95-9.08,3.03-11.38c0.92-0.53,24.68-9.59,48.69-20.45
				c-0.75-1.51-1.32-3.1-1.65-4.74c0,0-87.74,5.72-90.4,5.72c-2.22,0-4.31-0.87-5.89-2.44c-1.58-1.58-2.44-3.66-2.44-5.89
				c0-2.23,0.87-4.32,2.44-5.89c1.57-1.57,3.67-2.44,5.89-2.44c2.64,0,90.22,4.46,90.22,4.46c0.29-2.04,0.9-4.05,1.85-5.93
				c0,0-36.16-28.4-37.88-29.93c-1.66-1.48-2.65-3.51-2.78-5.73c-0.13-2.22,0.61-4.36,2.09-6.02c0.11-0.13,0.22-0.25,0.34-0.36
				c3.11-3.11,8.13-3.25,11.42-0.33c1.7,1.52,32.13,35.93,32.13,35.93c1.35-1.05,2.8-1.9,4.33-2.54c0,0-26.27-71.15-27.11-74.23
				c-0.78-2.88,0.04-5.97,2.15-8.08c1.02-1.02,2.3-1.76,3.7-2.14c2.15-0.58,4.39-0.3,6.32,0.81c1.93,1.11,3.32,2.9,3.9,5.04
				c0.83,3.08,14.71,77.48,14.71,77.48c0.8-0.16,1.61-0.24,2.42-0.3c-2.46-21.9-6.13-54.69-6.13-56.33c0-4.59,3.73-8.33,8.33-8.33
				c4.59,0,8.33,3.74,8.33,8.33c0,1.65-3.69,34.66-6.15,56.56c0.36,0.06,0.72,0.1,1.08,0.18c0,0,22.88-69.13,23.92-71.64
				c0.42-1.02,1.03-1.94,1.81-2.72c2.39-2.39,5.94-3.1,9.06-1.81c2.06,0.85,3.66,2.44,4.52,4.5c0.86,2.06,0.86,4.32,0.01,6.38
				c-1.04,2.52-33.67,67.55-33.67,67.55c1.32,0.79,2.57,1.73,3.71,2.87c0.31,0.31,0.59,0.64,0.87,0.96c0,0,43.5-36.26,45.91-37.88
				c3.8-2.57,8.99-1.55,11.56,2.25c2.22,3.3,1.8,7.73-1.01,10.54c-0.38,0.38-0.79,0.72-1.24,1.02
				c-2.41,1.62-52.39,28.36-52.39,28.36c1.04,2.18,1.65,4.52,1.82,6.88c0,0,78.48-5.7,81.66-5.7c2.22,0,4.32,0.87,5.89,2.44
				c1.58,1.58,2.44,3.66,2.44,5.89c0,2.23-0.87,4.32-2.44,5.89c-1.57,1.57-3.67,2.44-5.89,2.44c-3.19,0-81.78-7.11-81.78-7.11
				c-0.12,0.94-0.33,1.88-0.59,2.8c24.77,6.92,67.33,18.84,68.35,19.23c4.28,1.66,6.42,6.5,4.76,10.78
				c-1.66,4.28-6.49,6.41-10.78,4.75c-1.01-0.39-40.58-20.1-63.58-31.57c-0.6,1.22-1.3,2.41-2.19,3.5c0,0,36.38,28.53,38.37,30.53
				c3.25,3.25,3.25,8.53,0,11.78c-3.24,3.25-8.53,3.24-11.78,0c-2-2.01-30.66-38.54-30.66-38.54c-1.42,0.97-2.94,1.73-4.52,2.28
				c0,0,22.63,56.17,23.48,59.27c0.8,2.88-0.03,5.99-2.14,8.11c-1.01,1.01-2.28,1.75-3.67,2.13c-4.43,1.22-9.02-1.38-10.24-5.81
				c-0.86-3.1-11.04-62.83-11.04-62.83c-2.83,0.39-5.72,0.17-8.46-0.7c0,0-29.76,62.45-30.92,64.49c-0.37,0.66-0.83,1.26-1.36,1.79
				c-2.63,2.63-6.74,3.2-9.99,1.35c-1.93-1.09-3.33-2.88-3.92-5.02c-0.59-2.14-0.31-4.39,0.79-6.33c1.15-2.04,38.4-60.32,38.4-60.32
				c-0.24-0.21-0.48-0.41-0.7-0.64c-0.59-0.59-1.11-1.22-1.61-1.87c-21.54,15.09-41.36,31.21-42.28,31.75
				C390.27-137.23,385.17-138.58,382.86-142.55z M441.91-173.18c5.37,5.37,14.1,5.37,19.46,0c5.37-5.37,5.37-14.1,0-19.47
				c-5.37-5.37-14.1-5.37-19.47,0C436.55-187.28,436.55-178.55,441.91-173.18z"/>
			<path class="st3" d="M562.32-87.8c-2.89,1.99-6.86,1.26-8.86-1.64c-0.46-0.67-16.51-29.86-26.21-47.52
				c-1.11,0.66-2.29,1.19-3.51,1.54c0,0,6.93,32.68,7.09,34.7c0.13,1.7-0.41,3.34-1.51,4.63c-1.11,1.29-2.65,2.08-4.34,2.21
				c-1.7,0.13-3.34-0.4-4.63-1.51c-1.29-1.1-2.07-2.65-2.21-4.34c-0.15-2.01,0.69-35.16,0.69-35.16c-1.58-0.1-3.14-0.45-4.63-1.06
				c0,0-19.51,29.25-20.57,30.65c-1.03,1.36-2.52,2.23-4.21,2.46c-1.69,0.23-3.36-0.21-4.71-1.24c-0.1-0.08-0.2-0.15-0.3-0.24
				c-2.55-2.19-2.96-6-0.93-8.69c1.06-1.39,25.48-26.62,25.48-26.62c-0.88-0.96-1.61-2.02-2.19-3.15c0,0-52.68,24.24-54.98,25.06
				c-2.15,0.77-4.55,0.32-6.29-1.16c-0.84-0.72-1.48-1.65-1.85-2.69c-0.57-1.6-0.49-3.33,0.24-4.87c0.73-1.54,2.01-2.7,3.61-3.27
				c2.29-0.82,58.18-15.8,58.18-15.8c-0.17-0.6-0.28-1.21-0.37-1.83c-16.54,3.17-41.32,7.91-42.58,8.01
				c-3.5,0.27-6.57-2.35-6.84-5.85c-0.27-3.5,2.35-6.57,5.85-6.84c1.25-0.1,26.64,0.76,43.48,1.34c0.03-0.28,0.04-0.55,0.08-0.83
				c0,0-28.27-5.02-30.25-5.66c-0.81-0.26-1.54-0.67-2.18-1.22c-1.96-1.68-2.71-4.35-1.92-6.8c0.52-1.62,1.65-2.94,3.16-3.71
				c1.52-0.78,3.24-0.91,4.86-0.39c1.98,0.64,27.71,13.34,27.71,13.34c0.53-1.05,1.17-2.06,1.96-2.99c0.22-0.26,0.46-0.49,0.68-0.72
				c0,0-30.21-31.01-31.59-32.75c-2.18-2.75-1.72-6.76,1.04-8.95c2.38-1.88,5.78-1.83,8.09,0.15c0.31,0.27,0.6,0.56,0.85,0.88
				c1.38,1.74,24.72,38.25,24.72,38.25c1.6-0.92,3.34-1.53,5.14-1.79c0,0-7.26-37.17-7.45-39.59c-0.13-1.7,0.4-3.34,1.51-4.63
				c1.11-1.29,2.65-2.08,4.34-2.21c1.7-0.13,3.34,0.4,4.63,1.51c1.29,1.1,2.08,2.65,2.21,4.34c0.19,2.43-2.31,40.44-2.31,40.44
				c0.73,0.04,1.45,0.14,2.17,0.29c3.81-19.29,10.37-52.44,10.61-53.24c1.02-3.36,4.57-5.28,7.93-4.27
				c3.36,1.01,5.27,4.57,4.26,7.93c-0.24,0.79-12.92,32.12-20.3,50.34c0.97,0.39,1.92,0.85,2.8,1.46c0,0,13.42-22.25,14.82-23.89
				c2.28-2.67,6.31-2.98,8.98-0.7c2.67,2.28,2.98,6.31,0.7,8.98c-1.41,1.65-21.38,18.49-21.38,18.49c0.83,1.03,1.49,2.14,2,3.31
				c0,0,38.08-19.13,40.39-19.96c2.15-0.78,4.57-0.33,6.31,1.15c0.83,0.71,1.47,1.63,1.84,2.67c1.19,3.3-0.52,6.96-3.82,8.15
				c-2.31,0.84-43.84,10.69-43.84,10.69c0.47,2.13,0.47,4.35-0.03,6.49c0,0,34.95,12.33,36.57,13.09c0.52,0.25,1.01,0.56,1.44,0.93
				c2.16,1.85,2.83,4.95,1.62,7.53c-0.72,1.54-2,2.71-3.6,3.29c-1.6,0.58-3.33,0.5-4.87-0.22c-1.63-0.76-33.84-19.04-33.84-19.04
				c-0.14,0.19-0.29,0.39-0.45,0.57c-0.42,0.48-0.87,0.92-1.33,1.33c12.78,15.53,33.97,41.29,34.44,41.96
				C565.94-93.76,565.21-89.79,562.32-87.8z M527.74-142.61c3.77-4.41,3.25-11.06-1.15-14.84c-4.41-3.77-11.07-3.26-14.84,1.15
				c-3.78,4.41-3.26,11.07,1.15,14.84C517.31-137.68,523.97-138.2,527.74-142.61z"/>
			<path class="st4" d="M478.12-222.83c-2.08,1.06-4.64,0.24-5.71-1.84c-0.24-0.48-8.33-21.15-13.22-33.66
				c-0.79,0.34-1.62,0.59-2.46,0.71c0,0,1.76,22.19,1.69,23.54c-0.06,1.13-0.56,2.17-1.4,2.93c-0.84,0.76-1.93,1.14-3.06,1.08
				c-1.13-0.06-2.17-0.55-2.93-1.4c-0.76-0.84-1.14-1.93-1.08-3.06c0.07-1.34,3.49-23.17,3.49-23.17c-1.03-0.2-2.04-0.57-2.97-1.1
				c0,0-15.41,17.64-16.23,18.48c-0.8,0.81-1.86,1.25-2.99,1.26c-1.13,0.01-2.2-0.43-3.01-1.22c-0.06-0.06-0.12-0.12-0.17-0.18
				c-1.5-1.66-1.44-4.22,0.14-5.82c0.82-0.83,19.13-15.39,19.13-15.39c-0.5-0.71-0.89-1.47-1.17-2.27c0,0-36.9,11.47-38.49,11.82
				c-1.48,0.32-3.04-0.18-4.05-1.31c-0.49-0.55-0.83-1.22-0.99-1.94c-0.24-1.11-0.03-2.24,0.58-3.2c0.62-0.95,1.56-1.61,2.67-1.85
				c1.59-0.34,39.8-5.42,39.8-5.42c-0.06-0.41-0.08-0.82-0.08-1.24c-11.21,0.67-27.99,1.66-28.82,1.62
				c-2.34-0.12-4.14-2.12-4.02-4.46c0.12-2.34,2.12-4.14,4.46-4.02c0.84,0.04,17.53,2.8,28.61,4.63c0.04-0.18,0.07-0.36,0.12-0.54
				c0,0-18.25-5.75-19.5-6.35c-0.51-0.24-0.96-0.58-1.33-0.99c-1.15-1.28-1.42-3.11-0.68-4.66c0.49-1.02,1.34-1.8,2.41-2.18
				c1.07-0.38,2.22-0.32,3.24,0.16c1.25,0.59,17.15,11.2,17.15,11.2c0.44-0.65,0.95-1.26,1.56-1.81c0.17-0.15,0.34-0.28,0.51-0.42
				c0,0-17.29-23.09-18.05-24.36c-1.2-2-0.55-4.62,1.46-5.82c1.74-1.04,3.98-0.71,5.33,0.79c0.18,0.2,0.35,0.42,0.49,0.66
				c0.76,1.27,13.04,27.41,13.04,27.41c1.14-0.47,2.34-0.72,3.55-0.74c0,0-1.59-25.18-1.51-26.8c0.06-1.13,0.56-2.17,1.4-2.93
				c0.84-0.76,1.93-1.15,3.06-1.08c1.13,0.06,2.17,0.55,2.93,1.4c0.76,0.84,1.14,1.93,1.09,3.06c-0.08,1.63-5.01,26.52-5.01,26.52
				c0.48,0.09,0.94,0.22,1.41,0.38c4.18-12.42,11.37-33.75,11.6-34.26c0.96-2.13,3.47-3.09,5.61-2.13c2.13,0.96,3.09,3.47,2.13,5.61
				c-0.23,0.5-11.3,20.11-17.75,31.51c0.61,0.34,1.19,0.73,1.72,1.21c0,0,10.78-13.55,11.85-14.51c1.74-1.56,4.43-1.43,5.99,0.31
				c1.56,1.74,1.42,4.42-0.31,5.99c-1.07,0.97-15.72,10.37-15.72,10.37c0.46,0.75,0.8,1.54,1.04,2.36c0,0,26.81-9.35,28.41-9.71
				c1.49-0.33,3.05,0.17,4.07,1.31c0.49,0.54,0.83,1.21,0.98,1.92c0.5,2.28-0.94,4.55-3.23,5.06c-1.6,0.35-29.88,3.29-29.88,3.29
				c0.13,1.45-0.07,2.91-0.58,4.28c0,0,22.03,11.16,23.04,11.8c0.32,0.21,0.62,0.46,0.87,0.74c1.27,1.41,1.45,3.51,0.42,5.12
				c-0.61,0.96-1.56,1.62-2.66,1.86c-1.11,0.24-2.24,0.04-3.2-0.57c-1.01-0.64-20.71-15.5-20.71-15.5
				c-0.11,0.11-0.22,0.23-0.34,0.34c-0.32,0.28-0.65,0.53-0.99,0.77c7.1,11.36,18.89,30.21,19.14,30.7
				C481.03-226.45,480.2-223.89,478.12-222.83z M460-262.02c2.87-2.59,3.1-7.03,0.52-9.9c-2.59-2.87-7.03-3.11-9.9-0.52
				c-2.87,2.59-3.11,7.03-0.52,9.91C452.68-259.67,457.12-259.44,460-262.02z"/>
		</g>
		<g>
			<path class="st2" d="M215.76-47.46c-2.3-3.97-0.95-9.08,3.03-11.38c0.92-0.53,24.68-9.59,48.69-20.45
				c-0.75-1.51-1.32-3.1-1.65-4.74c0,0-87.74,5.72-90.4,5.72c-2.22,0-4.31-0.87-5.89-2.44c-1.58-1.58-2.44-3.66-2.44-5.89
				c0-2.23,0.87-4.32,2.44-5.89c1.57-1.57,3.67-2.44,5.89-2.44c2.64,0,90.22,4.46,90.22,4.46c0.29-2.04,0.9-4.05,1.85-5.93
				c0,0-36.16-28.4-37.88-29.93c-1.66-1.48-2.65-3.51-2.78-5.73c-0.13-2.22,0.61-4.36,2.09-6.02c0.11-0.13,0.22-0.25,0.34-0.36
				c3.11-3.11,8.13-3.25,11.42-0.33c1.7,1.52,32.13,35.93,32.13,35.93c1.35-1.05,2.8-1.9,4.33-2.54c0,0-26.27-71.15-27.11-74.23
				c-0.78-2.88,0.04-5.97,2.15-8.08c1.02-1.02,2.3-1.76,3.7-2.14c2.15-0.58,4.39-0.3,6.32,0.81c1.93,1.11,3.32,2.9,3.9,5.04
				c0.83,3.08,14.71,77.48,14.71,77.48c0.8-0.16,1.61-0.24,2.42-0.3c-2.46-21.9-6.13-54.69-6.13-56.33c0-4.59,3.73-8.33,8.33-8.33
				s8.33,3.74,8.33,8.33c0,1.65-3.69,34.66-6.15,56.56c0.36,0.06,0.72,0.1,1.08,0.18c0,0,22.88-69.13,23.92-71.64
				c0.42-1.02,1.03-1.94,1.81-2.72c2.39-2.39,5.94-3.1,9.06-1.81c2.06,0.85,3.66,2.44,4.52,4.5c0.86,2.06,0.86,4.32,0.01,6.38
				c-1.04,2.52-33.67,67.55-33.67,67.55c1.32,0.79,2.57,1.73,3.71,2.87c0.31,0.31,0.59,0.64,0.87,0.96c0,0,43.5-36.26,45.91-37.88
				c3.8-2.57,8.99-1.55,11.56,2.25c2.22,3.3,1.8,7.73-1.01,10.54c-0.38,0.38-0.79,0.72-1.24,1.02
				c-2.41,1.62-52.39,28.36-52.39,28.36c1.04,2.18,1.65,4.52,1.82,6.88c0,0,78.48-5.7,81.66-5.7c2.22,0,4.32,0.87,5.89,2.44
				c1.58,1.58,2.44,3.66,2.44,5.89c0,2.23-0.87,4.32-2.44,5.89c-1.57,1.57-3.67,2.44-5.89,2.44c-3.19,0-81.78-7.11-81.78-7.11
				c-0.12,0.94-0.33,1.88-0.59,2.8c24.77,6.92,67.33,18.84,68.35,19.23c4.28,1.66,6.42,6.5,4.76,10.78
				c-1.66,4.28-6.49,6.41-10.78,4.75c-1.01-0.39-40.58-20.1-63.58-31.57c-0.6,1.22-1.3,2.41-2.19,3.5c0,0,36.38,28.53,38.37,30.53
				c3.25,3.25,3.25,8.53,0,11.78c-3.24,3.25-8.53,3.24-11.78,0c-2-2.01-30.66-38.54-30.66-38.54c-1.42,0.97-2.94,1.73-4.52,2.28
				c0,0,22.63,56.17,23.48,59.27c0.8,2.88-0.03,5.99-2.14,8.11c-1.01,1.01-2.28,1.75-3.67,2.13c-4.43,1.22-9.02-1.38-10.24-5.81
				c-0.86-3.1-11.04-62.83-11.04-62.83c-2.83,0.39-5.72,0.17-8.46-0.7c0,0-29.76,62.45-30.92,64.49c-0.37,0.66-0.83,1.26-1.36,1.79
				c-2.63,2.63-6.74,3.2-9.99,1.35c-1.93-1.09-3.33-2.88-3.92-5.02c-0.59-2.14-0.31-4.39,0.79-6.33c1.15-2.04,38.4-60.32,38.4-60.32
				c-0.24-0.21-0.48-0.41-0.7-0.64c-0.59-0.59-1.11-1.22-1.61-1.87c-21.54,15.09-41.36,31.21-42.28,31.75
				C223.16-42.14,218.06-43.49,215.76-47.46z M274.81-78.09c5.37,5.37,14.1,5.37,19.46,0c5.37-5.37,5.37-14.1,0-19.47
				c-5.37-5.37-14.1-5.37-19.47,0C269.44-92.19,269.44-83.46,274.81-78.09z"/>
			<path class="st4" d="M311.01-127.74c-2.08,1.06-4.64,0.24-5.71-1.84c-0.24-0.48-8.33-21.15-13.22-33.66
				c-0.79,0.34-1.62,0.59-2.46,0.71c0,0,1.76,22.19,1.69,23.54c-0.06,1.13-0.56,2.17-1.4,2.93c-0.84,0.76-1.93,1.14-3.06,1.08
				c-1.13-0.06-2.17-0.55-2.93-1.4c-0.76-0.84-1.14-1.93-1.08-3.06c0.07-1.34,3.49-23.17,3.49-23.17c-1.03-0.2-2.04-0.57-2.97-1.1
				c0,0-15.41,17.64-16.23,18.48c-0.8,0.81-1.86,1.25-2.99,1.26c-1.13,0.01-2.2-0.43-3.01-1.22c-0.06-0.06-0.12-0.12-0.17-0.18
				c-1.5-1.67-1.44-4.22,0.14-5.82c0.82-0.83,19.13-15.39,19.13-15.39c-0.5-0.71-0.89-1.47-1.17-2.27c0,0-36.89,11.47-38.48,11.82
				c-1.48,0.32-3.04-0.18-4.05-1.31c-0.49-0.55-0.83-1.22-0.99-1.94c-0.24-1.11-0.03-2.24,0.58-3.2c0.61-0.95,1.56-1.61,2.67-1.85
				c1.59-0.34,39.8-5.42,39.8-5.42c-0.06-0.41-0.08-0.82-0.09-1.24c-11.21,0.67-27.98,1.66-28.82,1.62
				c-2.34-0.12-4.14-2.12-4.02-4.46c0.12-2.34,2.12-4.14,4.46-4.02c0.84,0.04,17.53,2.8,28.61,4.63c0.04-0.18,0.07-0.36,0.12-0.54
				c0,0-18.25-5.75-19.5-6.35c-0.51-0.24-0.96-0.58-1.33-0.99c-1.15-1.28-1.42-3.11-0.68-4.66c0.49-1.02,1.34-1.8,2.41-2.18
				c1.07-0.38,2.22-0.32,3.24,0.16c1.25,0.59,17.16,11.2,17.16,11.2c0.44-0.65,0.95-1.26,1.56-1.81c0.17-0.15,0.34-0.28,0.51-0.42
				c0,0-17.29-23.09-18.05-24.36c-1.2-2-0.55-4.62,1.46-5.82c1.74-1.04,3.98-0.71,5.33,0.79c0.18,0.2,0.35,0.42,0.49,0.66
				c0.76,1.27,13.04,27.41,13.04,27.41c1.14-0.47,2.34-0.72,3.55-0.74c0,0-1.59-25.18-1.51-26.8c0.06-1.13,0.56-2.17,1.4-2.93
				c0.84-0.76,1.93-1.15,3.06-1.08c1.13,0.06,2.17,0.55,2.93,1.4c0.76,0.84,1.14,1.93,1.09,3.06c-0.08,1.63-5.01,26.52-5.01,26.52
				c0.48,0.09,0.94,0.22,1.41,0.38c4.18-12.42,11.37-33.75,11.6-34.26c0.96-2.13,3.47-3.09,5.61-2.13c2.13,0.96,3.09,3.47,2.13,5.61
				c-0.23,0.5-11.3,20.11-17.75,31.51c0.61,0.34,1.19,0.73,1.72,1.21c0,0,10.78-13.55,11.85-14.51c1.74-1.56,4.43-1.43,5.99,0.31
				c1.56,1.74,1.42,4.42-0.31,5.99c-1.07,0.97-15.72,10.37-15.72,10.37c0.46,0.75,0.8,1.54,1.04,2.36c0,0,26.81-9.35,28.41-9.71
				c1.49-0.33,3.05,0.17,4.07,1.31c0.49,0.54,0.83,1.21,0.98,1.92c0.5,2.28-0.94,4.55-3.23,5.06c-1.6,0.35-29.88,3.29-29.88,3.29
				c0.13,1.45-0.07,2.91-0.58,4.28c0,0,22.03,11.16,23.04,11.8c0.32,0.21,0.62,0.46,0.87,0.74c1.27,1.41,1.45,3.51,0.42,5.12
				c-0.61,0.96-1.56,1.62-2.66,1.86c-1.11,0.24-2.24,0.04-3.2-0.57c-1.01-0.64-20.71-15.5-20.71-15.5
				c-0.11,0.11-0.22,0.23-0.34,0.34c-0.32,0.28-0.65,0.53-0.99,0.77c7.1,11.36,18.89,30.21,19.14,30.7
				C313.92-131.36,313.09-128.8,311.01-127.74z M292.89-166.93c2.87-2.59,3.1-7.03,0.52-9.9c-2.59-2.87-7.03-3.11-9.9-0.52
				c-2.87,2.59-3.11,7.03-0.52,9.91C285.58-164.58,290.02-164.35,292.89-166.93z"/>
		</g>
		<g>
			<path class="st2" d="M48.65-142.55c-2.3-3.97-0.95-9.08,3.03-11.38c0.92-0.53,24.68-9.59,48.69-20.45
				c-0.75-1.51-1.32-3.1-1.65-4.74c0,0-87.74,5.72-90.4,5.72c-2.22,0-4.31-0.87-5.89-2.44C0.87-177.42,0-179.5,0-181.73
				c0-2.23,0.87-4.32,2.44-5.89c1.57-1.57,3.67-2.44,5.89-2.44c2.64,0,90.22,4.46,90.22,4.46c0.29-2.04,0.9-4.05,1.85-5.93
				c0,0-36.16-28.4-37.88-29.93c-1.66-1.48-2.65-3.51-2.78-5.73c-0.13-2.22,0.61-4.36,2.09-6.02c0.11-0.13,0.22-0.25,0.34-0.36
				c3.11-3.11,8.13-3.25,11.42-0.33c1.7,1.52,32.13,35.93,32.13,35.93c1.35-1.05,2.8-1.9,4.33-2.54c0,0-26.27-71.15-27.11-74.23
				c-0.78-2.88,0.04-5.97,2.15-8.08c1.02-1.02,2.3-1.76,3.7-2.14c2.15-0.58,4.39-0.3,6.32,0.81c1.93,1.11,3.32,2.9,3.9,5.04
				c0.83,3.08,14.71,77.48,14.71,77.48c0.8-0.16,1.61-0.24,2.42-0.3c-2.46-21.9-6.13-54.69-6.13-56.33c0-4.59,3.73-8.33,8.33-8.33
				c4.59,0,8.33,3.74,8.33,8.33c0,1.65-3.69,34.66-6.15,56.56c0.36,0.06,0.72,0.1,1.08,0.18c0,0,22.88-69.13,23.92-71.64
				c0.42-1.02,1.03-1.94,1.81-2.72c2.39-2.39,5.94-3.1,9.06-1.81c2.06,0.85,3.66,2.44,4.52,4.5c0.86,2.06,0.86,4.32,0.01,6.38
				c-1.04,2.52-33.67,67.55-33.67,67.55c1.32,0.79,2.57,1.73,3.71,2.87c0.31,0.31,0.59,0.64,0.87,0.96c0,0,43.5-36.26,45.91-37.88
				c3.8-2.57,8.99-1.55,11.56,2.25c2.22,3.3,1.8,7.73-1.01,10.54c-0.38,0.38-0.79,0.72-1.24,1.02
				c-2.41,1.62-52.39,28.36-52.39,28.36c1.04,2.18,1.65,4.52,1.82,6.88c0,0,78.48-5.7,81.66-5.7c2.22,0,4.32,0.87,5.89,2.44
				c1.58,1.58,2.44,3.66,2.44,5.89c0,2.23-0.87,4.32-2.44,5.89c-1.57,1.57-3.67,2.44-5.89,2.44c-3.19,0-81.78-7.11-81.78-7.11
				c-0.12,0.94-0.33,1.88-0.59,2.8c24.77,6.92,67.33,18.84,68.35,19.23c4.28,1.66,6.42,6.5,4.76,10.78
				c-1.66,4.28-6.49,6.41-10.78,4.75c-1.01-0.39-40.58-20.1-63.58-31.57c-0.6,1.22-1.3,2.41-2.19,3.5c0,0,36.38,28.53,38.37,30.53
				c3.25,3.25,3.25,8.53,0,11.78c-3.24,3.25-8.53,3.24-11.78,0c-2-2.01-30.66-38.54-30.66-38.54c-1.42,0.97-2.94,1.73-4.52,2.28
				c0,0,22.62,56.17,23.48,59.27c0.8,2.88-0.03,5.99-2.14,8.11c-1.01,1.01-2.28,1.75-3.67,2.13c-4.43,1.22-9.02-1.38-10.24-5.81
				c-0.86-3.1-11.04-62.83-11.04-62.83c-2.83,0.39-5.72,0.17-8.46-0.7c0,0-29.76,62.45-30.92,64.49c-0.37,0.66-0.83,1.26-1.36,1.79
				c-2.63,2.63-6.74,3.2-9.99,1.35c-1.93-1.09-3.33-2.88-3.92-5.02c-0.59-2.14-0.31-4.39,0.79-6.33c1.15-2.04,38.4-60.32,38.4-60.32
				c-0.24-0.21-0.48-0.41-0.7-0.64c-0.59-0.59-1.11-1.22-1.61-1.87c-21.54,15.09-41.36,31.21-42.28,31.75
				C56.06-137.23,50.95-138.58,48.65-142.55z M107.7-173.18c5.37,5.37,14.1,5.37,19.46,0c5.37-5.37,5.37-14.1,0-19.47
				c-5.37-5.37-14.1-5.37-19.47,0C102.33-187.28,102.33-178.55,107.7-173.18z"/>
			<path class="st3" d="M228.11-87.8c-2.89,1.99-6.86,1.26-8.86-1.64c-0.46-0.67-16.51-29.86-26.21-47.52
				c-1.11,0.66-2.29,1.19-3.51,1.54c0,0,6.93,32.68,7.09,34.7c0.13,1.7-0.41,3.34-1.51,4.63c-1.11,1.29-2.65,2.08-4.34,2.21
				c-1.7,0.13-3.34-0.4-4.63-1.51c-1.29-1.1-2.07-2.65-2.21-4.34c-0.15-2.01,0.69-35.16,0.69-35.16c-1.58-0.1-3.14-0.45-4.63-1.06
				c0,0-19.51,29.25-20.57,30.65c-1.03,1.36-2.52,2.23-4.21,2.46c-1.69,0.23-3.36-0.21-4.71-1.24c-0.1-0.08-0.2-0.15-0.3-0.24
				c-2.55-2.19-2.96-6-0.93-8.69c1.06-1.39,25.48-26.62,25.48-26.62c-0.88-0.96-1.61-2.02-2.19-3.15c0,0-52.68,24.24-54.98,25.06
				c-2.15,0.77-4.55,0.32-6.29-1.16c-0.84-0.72-1.48-1.65-1.85-2.69c-0.57-1.6-0.49-3.33,0.24-4.87c0.73-1.54,2.01-2.7,3.61-3.27
				c2.29-0.82,58.18-15.8,58.18-15.8c-0.17-0.6-0.28-1.21-0.37-1.83c-16.54,3.17-41.32,7.91-42.58,8.01
				c-3.5,0.27-6.57-2.35-6.84-5.85c-0.27-3.5,2.35-6.57,5.85-6.84c1.25-0.1,26.64,0.76,43.48,1.34c0.03-0.28,0.04-0.55,0.08-0.83
				c0,0-28.27-5.02-30.25-5.66c-0.81-0.26-1.54-0.67-2.18-1.22c-1.96-1.68-2.71-4.35-1.92-6.8c0.52-1.62,1.65-2.94,3.16-3.71
				c1.52-0.78,3.24-0.91,4.86-0.39c1.98,0.64,27.71,13.34,27.71,13.34c0.53-1.05,1.17-2.06,1.96-2.99c0.22-0.26,0.46-0.49,0.68-0.72
				c0,0-30.21-31.01-31.59-32.75c-2.18-2.75-1.72-6.76,1.04-8.95c2.38-1.88,5.78-1.83,8.09,0.15c0.31,0.27,0.6,0.56,0.85,0.88
				c1.38,1.74,24.72,38.25,24.72,38.25c1.6-0.92,3.34-1.53,5.14-1.79c0,0-7.26-37.17-7.45-39.59c-0.13-1.7,0.4-3.34,1.51-4.63
				c1.11-1.29,2.65-2.08,4.34-2.21c1.7-0.13,3.34,0.4,4.63,1.51c1.29,1.1,2.08,2.65,2.21,4.34c0.19,2.43-2.31,40.44-2.31,40.44
				c0.73,0.04,1.45,0.14,2.17,0.29c3.81-19.29,10.37-52.44,10.61-53.24c1.02-3.36,4.57-5.28,7.93-4.27
				c3.36,1.01,5.27,4.57,4.26,7.93c-0.24,0.79-12.92,32.12-20.3,50.34c0.97,0.39,1.92,0.85,2.8,1.46c0,0,13.42-22.25,14.82-23.89
				c2.28-2.67,6.31-2.98,8.98-0.7c2.67,2.28,2.98,6.31,0.7,8.98c-1.41,1.65-21.38,18.49-21.38,18.49c0.83,1.03,1.49,2.14,2,3.31
				c0,0,38.08-19.13,40.39-19.96c2.15-0.78,4.57-0.33,6.31,1.15c0.83,0.71,1.47,1.63,1.84,2.67c1.19,3.3-0.52,6.96-3.82,8.15
				c-2.31,0.84-43.84,10.69-43.84,10.69c0.47,2.13,0.47,4.35-0.03,6.49c0,0,34.95,12.33,36.57,13.09c0.52,0.25,1.01,0.56,1.44,0.93
				c2.16,1.85,2.83,4.95,1.62,7.53c-0.72,1.54-2,2.71-3.6,3.29c-1.6,0.58-3.33,0.5-4.87-0.22c-1.63-0.76-33.84-19.04-33.84-19.04
				c-0.14,0.19-0.29,0.39-0.45,0.57c-0.42,0.48-0.87,0.92-1.33,1.33c12.78,15.53,33.97,41.29,34.44,41.96
				C231.73-93.76,231-89.79,228.11-87.8z M193.53-142.61c3.77-4.41,3.25-11.06-1.15-14.84c-4.41-3.77-11.07-3.26-14.84,1.15
				c-3.78,4.41-3.26,11.07,1.15,14.84C183.1-137.68,189.75-138.2,193.53-142.61z"/>
			<path class="st4" d="M143.91-222.83c-2.08,1.06-4.64,0.24-5.71-1.84c-0.24-0.48-8.33-21.15-13.22-33.66
				c-0.79,0.34-1.62,0.59-2.45,0.71c0,0,1.76,22.19,1.69,23.54c-0.06,1.13-0.56,2.17-1.4,2.93c-0.84,0.76-1.93,1.14-3.06,1.08
				c-1.13-0.06-2.17-0.55-2.93-1.4c-0.76-0.84-1.14-1.93-1.08-3.06c0.07-1.34,3.49-23.17,3.49-23.17c-1.03-0.2-2.04-0.57-2.97-1.1
				c0,0-15.41,17.64-16.23,18.48c-0.8,0.81-1.86,1.25-2.99,1.26c-1.13,0.01-2.2-0.43-3.01-1.22c-0.06-0.06-0.12-0.12-0.17-0.18
				c-1.5-1.66-1.44-4.22,0.14-5.82c0.82-0.83,19.13-15.39,19.13-15.39c-0.5-0.71-0.89-1.47-1.17-2.27c0,0-36.89,11.47-38.48,11.82
				c-1.48,0.32-3.04-0.18-4.05-1.31c-0.49-0.55-0.83-1.22-0.99-1.94c-0.24-1.11-0.03-2.24,0.58-3.2c0.61-0.95,1.56-1.61,2.67-1.85
				c1.59-0.34,39.8-5.42,39.8-5.42c-0.06-0.41-0.08-0.82-0.09-1.24c-11.21,0.67-27.98,1.66-28.82,1.62
				c-2.34-0.12-4.14-2.12-4.02-4.46c0.12-2.34,2.12-4.14,4.46-4.02c0.84,0.04,17.53,2.8,28.61,4.63c0.04-0.18,0.07-0.36,0.12-0.54
				c0,0-18.25-5.75-19.5-6.35c-0.51-0.24-0.96-0.58-1.33-0.99c-1.15-1.28-1.42-3.11-0.68-4.66c0.49-1.02,1.34-1.8,2.41-2.18
				c1.07-0.38,2.22-0.32,3.24,0.16c1.25,0.59,17.16,11.2,17.16,11.2c0.44-0.65,0.95-1.26,1.56-1.81c0.17-0.15,0.34-0.28,0.51-0.42
				c0,0-17.29-23.09-18.05-24.36c-1.2-2-0.55-4.62,1.46-5.82c1.74-1.04,3.98-0.71,5.33,0.79c0.18,0.2,0.35,0.42,0.49,0.66
				c0.76,1.27,13.04,27.41,13.04,27.41c1.14-0.47,2.34-0.72,3.55-0.74c0,0-1.59-25.18-1.51-26.8c0.06-1.13,0.56-2.17,1.4-2.93
				c0.84-0.76,1.93-1.15,3.06-1.08c1.13,0.06,2.17,0.55,2.93,1.4c0.76,0.84,1.14,1.93,1.09,3.06c-0.08,1.63-5.01,26.52-5.01,26.52
				c0.48,0.09,0.94,0.22,1.41,0.38c4.18-12.42,11.37-33.75,11.6-34.26c0.96-2.13,3.47-3.09,5.61-2.13c2.13,0.96,3.09,3.47,2.13,5.61
				c-0.23,0.5-11.3,20.11-17.75,31.51c0.61,0.34,1.19,0.73,1.72,1.21c0,0,10.78-13.55,11.85-14.51c1.74-1.56,4.43-1.43,5.99,0.31
				c1.56,1.74,1.42,4.42-0.31,5.99c-1.07,0.97-15.72,10.37-15.72,10.37c0.46,0.75,0.8,1.54,1.04,2.36c0,0,26.81-9.35,28.41-9.71
				c1.49-0.33,3.05,0.17,4.07,1.31c0.49,0.54,0.83,1.21,0.98,1.92c0.5,2.28-0.94,4.55-3.23,5.06c-1.6,0.35-29.88,3.29-29.88,3.29
				c0.13,1.45-0.07,2.91-0.58,4.28c0,0,22.03,11.16,23.04,11.8c0.32,0.21,0.62,0.46,0.87,0.74c1.27,1.41,1.45,3.51,0.42,5.12
				c-0.61,0.96-1.56,1.62-2.66,1.86c-1.11,0.24-2.24,0.04-3.2-0.57c-1.01-0.64-20.71-15.5-20.71-15.5
				c-0.11,0.11-0.22,0.23-0.34,0.34c-0.32,0.28-0.65,0.53-0.99,0.77c7.1,11.36,18.89,30.21,19.14,30.7
				C146.81-226.45,145.99-223.89,143.91-222.83z M125.78-262.02c2.87-2.59,3.1-7.03,0.52-9.9c-2.59-2.87-7.03-3.11-9.9-0.52
				c-2.87,2.59-3.11,7.03-0.52,9.91C118.47-259.67,122.91-259.44,125.78-262.02z"/>
		</g>
		<g>
			<path class="st1" d="M438.31-323.75c-1.04,2.91-4.25,4.42-7.17,3.38c-0.67-0.24-16.58-8.97-32.58-16.6
				c-0.45,1.04-1.02,2.03-1.72,2.9c0,0,46.42,49.04,47.57,50.41c0.96,1.14,1.42,2.59,1.3,4.08c-0.13,1.5-0.83,2.84-1.97,3.81
				c-1.15,0.96-2.6,1.43-4.09,1.3c-1.49-0.13-2.84-0.83-3.81-1.97c-1.14-1.36-42.26-54.73-42.26-54.73
				c-1.18,0.74-2.47,1.29-3.85,1.62c0,0,1.09,30.92,1.05,32.47c-0.04,1.5-0.66,2.89-1.75,3.92c-1.08,1.03-2.5,1.57-4,1.54
				c-0.11-0.01-0.22-0.01-0.33-0.02c-2.95-0.25-5.2-2.77-5.13-5.73c0.04-1.54,4.53-32.11,4.53-32.11c-1.13-0.24-2.19-0.61-3.18-1.12
				c0,0-25.19,44.38-26.41,46.15c-1.14,1.65-3.09,2.57-5.09,2.4c-0.97-0.08-1.9-0.42-2.71-0.97c-1.23-0.85-2.06-2.13-2.33-3.6
				c-0.27-1.47,0.05-2.96,0.9-4.19c1.22-1.76,33.46-41.18,33.46-41.18c-0.42-0.34-0.82-0.72-1.2-1.12
				c-10.19,10.77-25.46,26.88-26.31,27.59c-2.36,1.99-5.9,1.7-7.9-0.67c-1.99-2.36-1.69-5.9,0.67-7.89
				c0.85-0.71,19.42-13.14,31.75-21.38c-0.13-0.21-0.26-0.42-0.38-0.63c0,0-45.47,18.23-47.22,18.79c-0.71,0.23-1.44,0.31-2.18,0.25
				c-2.26-0.19-4.17-1.71-4.86-3.87c-0.46-1.42-0.33-2.94,0.35-4.27c0.69-1.33,1.85-2.32,3.27-2.77
				c1.74-0.56,49.34-11.99,49.34-11.99c-0.17-1.02-0.22-2.07-0.13-3.15c0.03-0.29,0.07-0.58,0.12-0.87c0,0-37.52-6.63-39.4-7.17
				c-2.97-0.84-4.7-3.95-3.86-6.92c0.73-2.57,3.19-4.28,5.86-4.05c0.36,0.03,0.72,0.09,1.06,0.19c1.88,0.54,37.31,14.63,37.31,14.63
				c0.67-1.48,1.61-2.81,2.75-3.92c0,0-44.09-46.31-45.48-47.95c-0.97-1.14-1.43-2.6-1.3-4.09c0.13-1.49,0.83-2.84,1.97-3.81
				c1.15-0.96,2.6-1.43,4.09-1.3c1.49,0.13,2.84,0.83,3.81,1.97c1.39,1.64,38.94,53.56,38.94,53.56c0.54-0.35,1.11-0.64,1.69-0.91
				c-7.19-15.74-19.53-42.79-19.76-43.49c-1-2.92,0.56-6.12,3.48-7.12c2.92-1,6.12,0.55,7.12,3.48c0.24,0.69,7.27,29.59,11.36,46.4
				c0.89-0.22,1.8-0.38,2.75-0.4c0,0-1.11-31.09-0.95-32.98c0.26-3.08,2.98-5.37,6.06-5.11c3.08,0.26,5.37,2.98,5.11,6.06
				c-0.16,1.9-6.51,32.49-6.51,32.49c1.12,0.31,2.16,0.76,3.13,1.34c0,0,26.37-46.34,27.59-48.13c1.14-1.66,3.09-2.59,5.1-2.42
				c0.96,0.08,1.89,0.41,2.69,0.96c2.55,1.75,3.2,5.24,1.46,7.79c-1.22,1.79-34.82,43.27-34.82,43.27c1.43,1.28,2.57,2.87,3.31,4.65
				c0,0,45.03-11.79,46.58-12.08c0.5-0.09,1.01-0.12,1.51-0.07c2.5,0.21,4.57,2.08,5.03,4.55c0.28,1.47-0.04,2.96-0.88,4.2
				c-0.85,1.23-2.12,2.06-3.59,2.34c-1.55,0.29-47.68,6.42-47.68,6.42c-0.01,0.21-0.01,0.42-0.03,0.64
				c-0.05,0.56-0.15,1.1-0.26,1.64c17.11,4.53,34.93,8.16,35.61,8.4C437.83-329.87,439.35-326.66,438.31-323.75z M396-341.26
				c0.43-5.09-3.36-9.58-8.45-10.01c-5.09-0.43-9.58,3.36-10.01,8.45c-0.43,5.09,3.36,9.58,8.45,10.01
				C391.08-332.38,395.57-336.17,396-341.26z"/>
			<path class="st2" d="M382.86-332.73c-2.3-3.97-0.95-9.08,3.03-11.38c0.92-0.53,24.68-9.59,48.69-20.45
				c-0.75-1.51-1.32-3.1-1.65-4.74c0,0-87.74,5.72-90.4,5.72c-2.22,0-4.31-0.87-5.89-2.44c-1.58-1.58-2.44-3.66-2.44-5.89
				c0-2.23,0.87-4.32,2.44-5.89c1.57-1.57,3.67-2.44,5.89-2.44c2.64,0,90.22,4.46,90.22,4.46c0.29-2.04,0.9-4.05,1.85-5.93
				c0,0-36.16-28.4-37.88-29.93c-1.66-1.48-2.65-3.51-2.78-5.73c-0.13-2.22,0.61-4.36,2.09-6.02c0.11-0.13,0.22-0.25,0.34-0.36
				c3.11-3.11,8.13-3.25,11.42-0.33c1.7,1.52,32.13,35.93,32.13,35.93c1.35-1.05,2.8-1.9,4.33-2.54c0,0-26.27-71.15-27.11-74.23
				c-0.78-2.88,0.04-5.97,2.15-8.08c1.02-1.02,2.3-1.76,3.7-2.14c2.15-0.58,4.39-0.3,6.32,0.81c1.93,1.11,3.32,2.9,3.9,5.04
				c0.83,3.08,14.71,77.48,14.71,77.48c0.8-0.16,1.61-0.24,2.42-0.3c-2.46-21.9-6.13-54.69-6.13-56.33c0-4.59,3.73-8.33,8.33-8.33
				c4.59,0,8.33,3.74,8.33,8.33c0,1.65-3.69,34.66-6.15,56.56c0.36,0.06,0.72,0.1,1.08,0.18c0,0,22.88-69.13,23.92-71.64
				c0.42-1.02,1.03-1.94,1.81-2.72c2.39-2.39,5.94-3.1,9.06-1.81c2.06,0.85,3.66,2.44,4.52,4.5c0.86,2.06,0.86,4.32,0.01,6.38
				c-1.04,2.52-33.67,67.55-33.67,67.55c1.32,0.79,2.57,1.73,3.71,2.87c0.31,0.31,0.59,0.64,0.87,0.96c0,0,43.5-36.26,45.91-37.88
				c3.8-2.57,8.99-1.55,11.56,2.25c2.22,3.3,1.8,7.73-1.01,10.54c-0.38,0.38-0.79,0.72-1.24,1.02
				c-2.41,1.62-52.39,28.36-52.39,28.36c1.04,2.18,1.65,4.52,1.82,6.88c0,0,78.48-5.7,81.66-5.7c2.22,0,4.32,0.87,5.89,2.44
				c1.58,1.58,2.44,3.66,2.44,5.89c0,2.23-0.87,4.32-2.44,5.89c-1.57,1.57-3.67,2.44-5.89,2.44c-3.19,0-81.78-7.11-81.78-7.11
				c-0.12,0.94-0.33,1.88-0.59,2.8c24.77,6.92,67.33,18.84,68.35,19.23c4.28,1.66,6.42,6.5,4.76,10.78
				c-1.66,4.28-6.49,6.41-10.78,4.75c-1.01-0.39-40.58-20.1-63.58-31.57c-0.6,1.22-1.3,2.41-2.19,3.5c0,0,36.38,28.53,38.37,30.53
				c3.25,3.25,3.25,8.53,0,11.78c-3.24,3.25-8.53,3.24-11.78,0c-2-2.01-30.66-38.54-30.66-38.54c-1.42,0.97-2.94,1.73-4.52,2.28
				c0,0,22.63,56.17,23.48,59.27c0.8,2.88-0.03,5.99-2.14,8.11c-1.01,1.01-2.28,1.75-3.67,2.13c-4.43,1.22-9.02-1.38-10.24-5.81
				c-0.86-3.1-11.04-62.83-11.04-62.83c-2.83,0.39-5.72,0.17-8.46-0.7c0,0-29.76,62.45-30.92,64.49c-0.37,0.66-0.83,1.26-1.36,1.79
				c-2.63,2.63-6.74,3.2-9.99,1.35c-1.93-1.09-3.33-2.88-3.92-5.02c-0.59-2.14-0.31-4.39,0.79-6.33c1.15-2.04,38.4-60.32,38.4-60.32
				c-0.24-0.21-0.48-0.41-0.7-0.64c-0.59-0.59-1.11-1.22-1.61-1.87c-21.54,15.09-41.36,31.21-42.28,31.75
				C390.27-327.4,385.17-328.76,382.86-332.73z M441.91-363.36c5.37,5.37,14.1,5.37,19.46,0c5.37-5.37,5.37-14.1,0-19.47
				c-5.37-5.37-14.1-5.37-19.47,0C436.55-377.46,436.55-368.73,441.91-363.36z"/>
			<path class="st3" d="M562.32-277.98c-2.89,1.99-6.86,1.26-8.86-1.64c-0.46-0.67-16.51-29.86-26.21-47.52
				c-1.11,0.67-2.29,1.19-3.51,1.54c0,0,6.93,32.68,7.09,34.7c0.13,1.7-0.41,3.34-1.51,4.63c-1.11,1.29-2.65,2.08-4.34,2.21
				c-1.7,0.13-3.34-0.4-4.63-1.51c-1.29-1.1-2.07-2.65-2.21-4.34c-0.15-2.01,0.69-35.16,0.69-35.16c-1.58-0.1-3.14-0.45-4.63-1.06
				c0,0-19.51,29.25-20.57,30.65c-1.03,1.36-2.52,2.23-4.21,2.46c-1.69,0.23-3.36-0.21-4.71-1.24c-0.1-0.08-0.2-0.15-0.3-0.24
				c-2.55-2.19-2.96-6-0.93-8.69c1.06-1.39,25.48-26.62,25.48-26.62c-0.88-0.96-1.61-2.02-2.19-3.15c0,0-52.68,24.24-54.98,25.06
				c-2.15,0.77-4.55,0.32-6.29-1.16c-0.84-0.72-1.48-1.65-1.85-2.69c-0.57-1.6-0.49-3.33,0.24-4.87c0.73-1.54,2.01-2.7,3.61-3.27
				c2.29-0.82,58.18-15.8,58.18-15.8c-0.17-0.6-0.28-1.21-0.37-1.83c-16.54,3.17-41.32,7.91-42.58,8.01
				c-3.5,0.27-6.57-2.35-6.84-5.85c-0.27-3.5,2.35-6.57,5.85-6.84c1.25-0.1,26.64,0.76,43.48,1.34c0.03-0.28,0.04-0.55,0.08-0.83
				c0,0-28.27-5.02-30.25-5.66c-0.81-0.26-1.54-0.67-2.18-1.22c-1.96-1.68-2.71-4.35-1.92-6.8c0.52-1.62,1.65-2.94,3.16-3.71
				c1.52-0.78,3.24-0.91,4.86-0.39c1.98,0.64,27.71,13.34,27.71,13.34c0.53-1.05,1.17-2.06,1.96-2.99c0.22-0.26,0.46-0.49,0.68-0.72
				c0,0-30.21-31.01-31.59-32.75c-2.18-2.75-1.72-6.76,1.04-8.95c2.38-1.88,5.78-1.83,8.09,0.15c0.31,0.27,0.6,0.56,0.85,0.88
				c1.38,1.74,24.72,38.25,24.72,38.25c1.6-0.92,3.34-1.53,5.14-1.79c0,0-7.26-37.16-7.45-39.59c-0.13-1.7,0.4-3.34,1.51-4.63
				c1.11-1.29,2.65-2.08,4.34-2.21c1.7-0.13,3.34,0.4,4.63,1.51c1.29,1.1,2.08,2.65,2.21,4.34c0.19,2.43-2.31,40.44-2.31,40.44
				c0.73,0.04,1.45,0.14,2.17,0.29c3.81-19.29,10.37-52.44,10.61-53.24c1.02-3.36,4.57-5.28,7.93-4.27
				c3.36,1.01,5.27,4.57,4.26,7.93c-0.24,0.79-12.92,32.12-20.3,50.34c0.97,0.39,1.92,0.85,2.8,1.46c0,0,13.42-22.25,14.82-23.89
				c2.28-2.67,6.31-2.98,8.98-0.7c2.67,2.28,2.98,6.31,0.7,8.98c-1.41,1.65-21.38,18.49-21.38,18.49c0.83,1.03,1.49,2.14,2,3.31
				c0,0,38.08-19.13,40.39-19.96c2.15-0.78,4.57-0.34,6.31,1.15c0.83,0.71,1.47,1.63,1.84,2.67c1.19,3.3-0.52,6.96-3.82,8.15
				c-2.31,0.84-43.84,10.69-43.84,10.69c0.47,2.13,0.47,4.35-0.03,6.49c0,0,34.95,12.33,36.57,13.09c0.52,0.25,1.01,0.56,1.44,0.93
				c2.16,1.85,2.83,4.95,1.62,7.53c-0.72,1.54-2,2.71-3.6,3.29c-1.6,0.58-3.33,0.5-4.87-0.22c-1.63-0.76-33.84-19.04-33.84-19.04
				c-0.14,0.19-0.29,0.39-0.45,0.57c-0.42,0.48-0.87,0.92-1.33,1.33c12.78,15.53,33.97,41.29,34.44,41.96
				C565.94-283.94,565.21-279.97,562.32-277.98z M527.74-332.79c3.77-4.41,3.25-11.06-1.15-14.83c-4.41-3.77-11.07-3.26-14.84,1.15
				c-3.78,4.41-3.26,11.07,1.15,14.84C517.31-327.86,523.97-328.38,527.74-332.79z"/>
		</g>
		<g>
			<path class="st1" d="M271.2-228.66c-1.04,2.91-4.25,4.42-7.17,3.38c-0.67-0.24-16.58-8.97-32.58-16.6
				c-0.45,1.04-1.02,2.03-1.72,2.9c0,0,46.42,49.04,47.57,50.41c0.96,1.14,1.42,2.59,1.3,4.08c-0.13,1.5-0.83,2.84-1.97,3.81
				c-1.15,0.96-2.6,1.43-4.09,1.3c-1.49-0.13-2.84-0.83-3.81-1.97c-1.14-1.36-42.26-54.73-42.26-54.73
				c-1.18,0.74-2.48,1.29-3.85,1.62c0,0,1.09,30.92,1.05,32.47c-0.04,1.5-0.66,2.89-1.75,3.92c-1.08,1.03-2.5,1.57-4,1.54
				c-0.11-0.01-0.22-0.01-0.33-0.02c-2.95-0.25-5.2-2.77-5.13-5.73c0.04-1.54,4.53-32.11,4.53-32.11c-1.13-0.24-2.19-0.61-3.18-1.12
				c0,0-25.19,44.38-26.41,46.15c-1.14,1.65-3.09,2.57-5.09,2.4c-0.97-0.08-1.9-0.42-2.71-0.97c-1.23-0.85-2.06-2.13-2.33-3.6
				c-0.27-1.47,0.05-2.96,0.9-4.19c1.22-1.76,33.46-41.18,33.46-41.18c-0.43-0.34-0.82-0.72-1.2-1.12
				c-10.19,10.77-25.46,26.88-26.31,27.59c-2.36,1.99-5.9,1.7-7.9-0.67c-1.99-2.36-1.69-5.9,0.67-7.89
				c0.85-0.71,19.42-13.14,31.76-21.38c-0.13-0.21-0.26-0.42-0.38-0.63c0,0-45.47,18.23-47.22,18.79c-0.71,0.23-1.44,0.31-2.18,0.25
				c-2.26-0.19-4.17-1.71-4.86-3.87c-0.46-1.42-0.33-2.94,0.35-4.27c0.69-1.33,1.85-2.32,3.27-2.77
				c1.74-0.56,49.34-11.99,49.34-11.99c-0.16-1.02-0.22-2.07-0.13-3.15c0.02-0.29,0.07-0.58,0.12-0.87c0,0-37.52-6.63-39.4-7.17
				c-2.97-0.84-4.7-3.95-3.86-6.92c0.73-2.57,3.19-4.28,5.86-4.05c0.36,0.03,0.72,0.09,1.07,0.19c1.88,0.54,37.31,14.63,37.31,14.63
				c0.67-1.48,1.61-2.81,2.75-3.92c0,0-44.09-46.31-45.48-47.95c-0.97-1.14-1.43-2.6-1.3-4.09c0.13-1.49,0.83-2.84,1.97-3.81
				c1.15-0.96,2.59-1.43,4.09-1.3c1.49,0.13,2.84,0.83,3.81,1.97c1.39,1.64,38.94,53.56,38.94,53.56c0.54-0.35,1.11-0.64,1.69-0.91
				c-7.19-15.74-19.53-42.79-19.77-43.49c-1-2.92,0.56-6.12,3.48-7.12c2.92-1,6.12,0.55,7.12,3.48c0.24,0.69,7.27,29.59,11.36,46.4
				c0.89-0.22,1.8-0.38,2.75-0.4c0,0-1.11-31.08-0.95-32.98c0.26-3.08,2.98-5.37,6.06-5.11c3.08,0.26,5.37,2.98,5.11,6.06
				c-0.16,1.9-6.51,32.49-6.51,32.49c1.12,0.31,2.16,0.76,3.14,1.34c0,0,26.37-46.34,27.59-48.13c1.14-1.66,3.09-2.59,5.1-2.42
				c0.96,0.08,1.89,0.41,2.69,0.96c2.55,1.75,3.2,5.24,1.46,7.79c-1.22,1.79-34.82,43.27-34.82,43.27c1.43,1.28,2.57,2.87,3.31,4.65
				c0,0,45.03-11.79,46.58-12.08c0.5-0.09,1.01-0.12,1.51-0.07c2.5,0.21,4.57,2.08,5.03,4.55c0.28,1.47-0.04,2.96-0.88,4.2
				c-0.85,1.23-2.12,2.06-3.59,2.34c-1.55,0.29-47.68,6.42-47.68,6.42c-0.01,0.21-0.01,0.42-0.02,0.64
				c-0.05,0.56-0.15,1.1-0.26,1.64c17.11,4.53,34.93,8.16,35.61,8.4C270.73-234.78,272.25-231.57,271.2-228.66z M228.89-246.17
				c0.43-5.09-3.36-9.58-8.45-10.01c-5.09-0.43-9.58,3.36-10.01,8.45c-0.43,5.09,3.36,9.58,8.45,10.01
				C223.97-237.29,228.46-241.08,228.89-246.17z"/>
			<path class="st2" d="M215.76-237.64c-2.3-3.97-0.95-9.08,3.03-11.38c0.92-0.53,24.68-9.59,48.69-20.45
				c-0.75-1.51-1.32-3.1-1.65-4.74c0,0-87.74,5.72-90.4,5.72c-2.22,0-4.31-0.87-5.89-2.44c-1.58-1.58-2.44-3.66-2.44-5.89
				c0-2.23,0.87-4.32,2.44-5.89c1.57-1.57,3.67-2.44,5.89-2.44c2.64,0,90.22,4.46,90.22,4.46c0.29-2.04,0.9-4.05,1.85-5.93
				c0,0-36.16-28.4-37.88-29.93c-1.66-1.48-2.65-3.51-2.78-5.73c-0.13-2.22,0.61-4.36,2.09-6.02c0.11-0.13,0.22-0.25,0.34-0.36
				c3.11-3.11,8.13-3.25,11.42-0.33c1.7,1.52,32.13,35.93,32.13,35.93c1.35-1.05,2.8-1.9,4.33-2.54c0,0-26.27-71.15-27.11-74.23
				c-0.78-2.88,0.04-5.97,2.15-8.08c1.02-1.02,2.3-1.76,3.7-2.14c2.15-0.58,4.39-0.3,6.32,0.81c1.93,1.11,3.32,2.9,3.9,5.04
				c0.83,3.08,14.71,77.48,14.71,77.48c0.8-0.16,1.61-0.24,2.42-0.3c-2.46-21.9-6.13-54.69-6.13-56.33c0-4.59,3.73-8.33,8.33-8.33
				s8.33,3.74,8.33,8.33c0,1.65-3.69,34.66-6.15,56.56c0.36,0.06,0.72,0.1,1.08,0.18c0,0,22.88-69.13,23.92-71.64
				c0.42-1.02,1.03-1.94,1.81-2.72c2.39-2.39,5.94-3.1,9.06-1.81c2.06,0.85,3.66,2.44,4.52,4.5c0.86,2.06,0.86,4.32,0.01,6.38
				c-1.04,2.52-33.67,67.55-33.67,67.55c1.32,0.79,2.57,1.73,3.71,2.87c0.31,0.31,0.59,0.64,0.87,0.96c0,0,43.5-36.26,45.91-37.88
				c3.8-2.57,8.99-1.55,11.56,2.25c2.22,3.3,1.8,7.73-1.01,10.54c-0.38,0.38-0.79,0.72-1.24,1.02
				c-2.41,1.62-52.39,28.36-52.39,28.36c1.04,2.18,1.65,4.52,1.82,6.88c0,0,78.48-5.7,81.66-5.7c2.22,0,4.32,0.87,5.89,2.44
				c1.58,1.58,2.44,3.66,2.44,5.89c0,2.23-0.87,4.32-2.44,5.89c-1.57,1.57-3.67,2.44-5.89,2.44c-3.19,0-81.78-7.11-81.78-7.11
				c-0.12,0.94-0.33,1.88-0.59,2.8c24.77,6.92,67.33,18.84,68.35,19.23c4.28,1.66,6.42,6.5,4.76,10.78
				c-1.66,4.28-6.49,6.41-10.78,4.75c-1.01-0.39-40.58-20.1-63.58-31.57c-0.6,1.22-1.3,2.41-2.19,3.5c0,0,36.38,28.53,38.37,30.53
				c3.25,3.25,3.25,8.53,0,11.78c-3.24,3.25-8.53,3.24-11.78,0c-2-2.01-30.66-38.54-30.66-38.54c-1.42,0.97-2.94,1.73-4.52,2.28
				c0,0,22.63,56.17,23.48,59.27c0.8,2.88-0.03,5.99-2.14,8.11c-1.01,1.01-2.28,1.75-3.67,2.13c-4.43,1.22-9.02-1.38-10.24-5.81
				c-0.86-3.1-11.04-62.83-11.04-62.83c-2.83,0.39-5.72,0.17-8.46-0.7c0,0-29.76,62.45-30.92,64.49c-0.37,0.66-0.83,1.26-1.36,1.79
				c-2.63,2.63-6.74,3.2-9.99,1.35c-1.93-1.09-3.33-2.88-3.92-5.02c-0.59-2.14-0.31-4.39,0.79-6.33c1.15-2.04,38.4-60.32,38.4-60.32
				c-0.24-0.21-0.48-0.41-0.7-0.64c-0.59-0.59-1.11-1.22-1.61-1.87c-21.54,15.09-41.36,31.21-42.28,31.75
				C223.16-232.31,218.06-233.67,215.76-237.64z M274.81-268.27c5.37,5.37,14.1,5.37,19.46,0c5.37-5.37,5.37-14.1,0-19.47
				c-5.37-5.37-14.1-5.37-19.47,0C269.44-282.37,269.44-273.64,274.81-268.27z"/>
			<path class="st3" d="M395.21-182.89c-2.89,1.99-6.86,1.26-8.86-1.64c-0.46-0.67-16.51-29.86-26.21-47.52
				c-1.11,0.66-2.29,1.19-3.51,1.54c0,0,6.93,32.68,7.09,34.7c0.13,1.7-0.41,3.34-1.51,4.63c-1.11,1.29-2.65,2.08-4.34,2.21
				c-1.7,0.13-3.34-0.4-4.63-1.51c-1.29-1.1-2.07-2.65-2.21-4.34c-0.15-2.01,0.69-35.16,0.69-35.16c-1.58-0.1-3.14-0.45-4.63-1.06
				c0,0-19.51,29.25-20.57,30.65c-1.03,1.36-2.52,2.23-4.21,2.46c-1.69,0.23-3.36-0.21-4.71-1.24c-0.1-0.08-0.2-0.15-0.3-0.24
				c-2.55-2.19-2.96-6-0.93-8.69c1.06-1.39,25.48-26.62,25.48-26.62c-0.88-0.96-1.61-2.02-2.19-3.15c0,0-52.68,24.24-54.98,25.06
				c-2.15,0.77-4.55,0.32-6.29-1.16c-0.84-0.72-1.48-1.65-1.85-2.69c-0.57-1.6-0.49-3.33,0.24-4.87c0.73-1.54,2.01-2.7,3.61-3.27
				c2.29-0.82,58.18-15.8,58.18-15.8c-0.17-0.6-0.28-1.21-0.37-1.83c-16.54,3.17-41.32,7.91-42.58,8.01
				c-3.5,0.27-6.57-2.35-6.84-5.85c-0.27-3.5,2.35-6.57,5.85-6.84c1.25-0.1,26.64,0.76,43.48,1.34c0.03-0.28,0.04-0.55,0.08-0.83
				c0,0-28.27-5.02-30.25-5.66c-0.81-0.26-1.54-0.67-2.18-1.22c-1.96-1.68-2.71-4.35-1.92-6.8c0.52-1.62,1.65-2.94,3.16-3.71
				c1.52-0.78,3.24-0.91,4.86-0.39c1.98,0.64,27.71,13.34,27.71,13.34c0.53-1.05,1.17-2.06,1.96-2.99c0.22-0.26,0.45-0.49,0.68-0.72
				c0,0-30.21-31.01-31.59-32.75c-2.18-2.75-1.72-6.76,1.04-8.95c2.38-1.88,5.78-1.83,8.09,0.15c0.31,0.27,0.6,0.56,0.85,0.88
				c1.38,1.74,24.72,38.25,24.72,38.25c1.6-0.92,3.34-1.53,5.14-1.79c0,0-7.26-37.17-7.45-39.59c-0.13-1.7,0.4-3.34,1.51-4.63
				c1.11-1.29,2.65-2.08,4.34-2.21c1.7-0.13,3.34,0.4,4.63,1.51c1.29,1.1,2.08,2.65,2.21,4.34c0.19,2.43-2.31,40.44-2.31,40.44
				c0.73,0.04,1.45,0.14,2.17,0.29c3.81-19.29,10.37-52.44,10.61-53.24c1.02-3.36,4.57-5.28,7.93-4.27
				c3.36,1.01,5.27,4.57,4.26,7.93c-0.24,0.79-12.92,32.12-20.3,50.34c0.97,0.39,1.92,0.85,2.8,1.46c0,0,13.42-22.25,14.82-23.89
				c2.28-2.67,6.31-2.98,8.98-0.7c2.67,2.28,2.98,6.31,0.7,8.98c-1.41,1.65-21.38,18.49-21.38,18.49c0.83,1.03,1.49,2.14,2,3.31
				c0,0,38.08-19.13,40.39-19.96c2.15-0.78,4.57-0.33,6.31,1.15c0.83,0.71,1.47,1.63,1.84,2.67c1.19,3.3-0.52,6.96-3.82,8.15
				c-2.31,0.84-43.84,10.69-43.84,10.69c0.47,2.13,0.47,4.35-0.03,6.49c0,0,34.95,12.33,36.57,13.09c0.52,0.25,1.01,0.56,1.44,0.93
				c2.16,1.85,2.83,4.95,1.62,7.53c-0.72,1.54-2,2.71-3.6,3.29c-1.6,0.58-3.33,0.5-4.87-0.22c-1.63-0.76-33.84-19.04-33.84-19.04
				c-0.14,0.19-0.29,0.39-0.45,0.57c-0.42,0.48-0.87,0.92-1.33,1.33c12.78,15.53,33.97,41.29,34.44,41.96
				C398.84-188.85,398.1-184.88,395.21-182.89z M360.63-237.7c3.77-4.41,3.25-11.06-1.15-14.83c-4.41-3.77-11.07-3.26-14.84,1.15
				c-3.78,4.41-3.26,11.07,1.15,14.84C350.21-232.77,356.86-233.29,360.63-237.7z"/>
			<path class="st4" d="M311.01-317.92c-2.08,1.06-4.64,0.24-5.71-1.84c-0.24-0.48-8.33-21.15-13.22-33.66
				c-0.79,0.34-1.62,0.59-2.46,0.71c0,0,1.76,22.19,1.69,23.54c-0.06,1.13-0.56,2.17-1.4,2.93c-0.84,0.76-1.93,1.14-3.06,1.08
				c-1.13-0.06-2.17-0.55-2.93-1.4c-0.76-0.84-1.14-1.93-1.08-3.06c0.07-1.34,3.49-23.17,3.49-23.17c-1.03-0.2-2.04-0.57-2.97-1.1
				c0,0-15.41,17.64-16.23,18.48c-0.8,0.81-1.86,1.25-2.99,1.26c-1.13,0.01-2.2-0.43-3.01-1.22c-0.06-0.06-0.12-0.12-0.17-0.18
				c-1.5-1.67-1.44-4.22,0.14-5.82c0.82-0.83,19.13-15.39,19.13-15.39c-0.5-0.71-0.89-1.47-1.17-2.27c0,0-36.89,11.47-38.48,11.82
				c-1.48,0.32-3.04-0.18-4.05-1.31c-0.49-0.55-0.83-1.22-0.99-1.94c-0.24-1.11-0.03-2.24,0.58-3.2c0.61-0.95,1.56-1.61,2.67-1.85
				c1.59-0.34,39.8-5.42,39.8-5.42c-0.06-0.41-0.08-0.82-0.09-1.24c-11.21,0.67-27.98,1.66-28.82,1.62
				c-2.34-0.12-4.14-2.12-4.02-4.46c0.12-2.34,2.12-4.14,4.46-4.02c0.84,0.04,17.53,2.8,28.61,4.63c0.04-0.18,0.07-0.36,0.12-0.54
				c0,0-18.25-5.75-19.5-6.35c-0.51-0.24-0.96-0.58-1.33-0.99c-1.15-1.28-1.42-3.11-0.68-4.66c0.49-1.02,1.34-1.8,2.41-2.18
				c1.07-0.38,2.22-0.32,3.24,0.16c1.25,0.59,17.16,11.2,17.16,11.2c0.44-0.65,0.95-1.26,1.56-1.81c0.17-0.15,0.34-0.28,0.51-0.42
				c0,0-17.29-23.09-18.05-24.36c-1.2-2-0.55-4.62,1.46-5.82c1.74-1.04,3.98-0.71,5.33,0.79c0.18,0.2,0.35,0.42,0.49,0.66
				c0.76,1.27,13.04,27.41,13.04,27.41c1.14-0.47,2.34-0.72,3.55-0.74c0,0-1.59-25.18-1.51-26.8c0.06-1.13,0.56-2.17,1.4-2.93
				c0.84-0.76,1.93-1.15,3.06-1.08c1.13,0.06,2.17,0.55,2.93,1.4c0.76,0.84,1.14,1.93,1.09,3.06c-0.08,1.63-5.01,26.52-5.01,26.52
				c0.48,0.09,0.94,0.22,1.41,0.38c4.18-12.42,11.37-33.75,11.6-34.26c0.96-2.13,3.47-3.09,5.61-2.13c2.13,0.96,3.09,3.47,2.13,5.61
				c-0.23,0.5-11.3,20.11-17.75,31.51c0.61,0.34,1.19,0.73,1.72,1.21c0,0,10.78-13.55,11.85-14.51c1.74-1.56,4.43-1.43,5.99,0.31
				c1.56,1.74,1.42,4.42-0.31,5.99c-1.07,0.97-15.72,10.37-15.72,10.37c0.46,0.75,0.8,1.54,1.04,2.36c0,0,26.81-9.35,28.41-9.71
				c1.49-0.33,3.05,0.17,4.07,1.31c0.49,0.54,0.83,1.21,0.98,1.92c0.5,2.28-0.94,4.55-3.23,5.06c-1.6,0.35-29.88,3.29-29.88,3.29
				c0.13,1.45-0.07,2.91-0.58,4.28c0,0,22.03,11.16,23.04,11.8c0.32,0.21,0.62,0.46,0.87,0.74c1.27,1.41,1.45,3.51,0.42,5.12
				c-0.61,0.96-1.56,1.62-2.66,1.86c-1.11,0.24-2.24,0.04-3.2-0.57c-1.01-0.64-20.71-15.5-20.71-15.5
				c-0.11,0.11-0.22,0.23-0.34,0.34c-0.32,0.28-0.65,0.53-0.99,0.77c7.1,11.36,18.89,30.21,19.14,30.7
				C313.92-321.54,313.09-318.98,311.01-317.92z M292.89-357.11c2.87-2.59,3.1-7.03,0.52-9.9c-2.59-2.87-7.03-3.11-9.9-0.52
				c-2.87,2.59-3.11,7.03-0.52,9.91C285.58-354.76,290.02-354.52,292.89-357.11z"/>
		</g>
		<g>
			<path class="st2" d="M48.65-332.73c-2.3-3.97-0.95-9.08,3.03-11.38c0.92-0.53,24.68-9.59,48.69-20.45
				c-0.75-1.51-1.32-3.1-1.65-4.74c0,0-87.74,5.72-90.4,5.72c-2.22,0-4.31-0.87-5.89-2.44C0.87-367.6,0-369.68,0-371.91
				c0-2.23,0.87-4.32,2.44-5.89c1.57-1.57,3.67-2.44,5.89-2.44c2.64,0,90.22,4.46,90.22,4.46c0.29-2.04,0.9-4.05,1.85-5.93
				c0,0-36.16-28.4-37.88-29.93c-1.66-1.48-2.65-3.51-2.78-5.73c-0.13-2.22,0.61-4.36,2.09-6.02c0.11-0.13,0.22-0.25,0.34-0.36
				c3.11-3.11,8.13-3.25,11.42-0.33c1.7,1.52,32.13,35.93,32.13,35.93c1.35-1.05,2.8-1.9,4.33-2.54c0,0-26.27-71.15-27.11-74.23
				c-0.78-2.88,0.04-5.97,2.15-8.08c1.02-1.02,2.3-1.76,3.7-2.14c2.15-0.58,4.39-0.3,6.32,0.81c1.93,1.11,3.32,2.9,3.9,5.04
				c0.83,3.08,14.71,77.48,14.71,77.48c0.8-0.16,1.61-0.24,2.42-0.3c-2.46-21.9-6.13-54.69-6.13-56.33c0-4.59,3.73-8.33,8.33-8.33
				c4.59,0,8.33,3.74,8.33,8.33c0,1.65-3.69,34.66-6.15,56.56c0.36,0.06,0.72,0.1,1.08,0.18c0,0,22.88-69.13,23.92-71.64
				c0.42-1.02,1.03-1.94,1.81-2.72c2.39-2.39,5.94-3.1,9.06-1.81c2.06,0.85,3.66,2.44,4.52,4.5c0.86,2.06,0.86,4.32,0.01,6.38
				c-1.04,2.52-33.67,67.55-33.67,67.55c1.32,0.79,2.57,1.73,3.71,2.87c0.31,0.31,0.59,0.64,0.87,0.96c0,0,43.5-36.26,45.91-37.88
				c3.8-2.57,8.99-1.55,11.56,2.25c2.22,3.3,1.8,7.73-1.01,10.54c-0.38,0.38-0.79,0.72-1.24,1.02
				c-2.41,1.62-52.39,28.36-52.39,28.36c1.04,2.18,1.65,4.52,1.82,6.88c0,0,78.48-5.7,81.66-5.7c2.22,0,4.32,0.87,5.89,2.44
				c1.58,1.58,2.44,3.66,2.44,5.89c0,2.23-0.87,4.32-2.44,5.89c-1.57,1.57-3.67,2.44-5.89,2.44c-3.19,0-81.78-7.11-81.78-7.11
				c-0.12,0.94-0.33,1.88-0.59,2.8c24.77,6.92,67.33,18.84,68.35,19.23c4.28,1.66,6.42,6.5,4.76,10.78
				c-1.66,4.28-6.49,6.41-10.78,4.75c-1.01-0.39-40.58-20.1-63.58-31.57c-0.6,1.22-1.3,2.41-2.19,3.5c0,0,36.38,28.53,38.37,30.53
				c3.25,3.25,3.25,8.53,0,11.78c-3.24,3.25-8.53,3.24-11.78,0c-2-2.01-30.66-38.54-30.66-38.54c-1.42,0.97-2.94,1.73-4.52,2.28
				c0,0,22.62,56.17,23.48,59.27c0.8,2.88-0.03,5.99-2.14,8.11c-1.01,1.01-2.28,1.75-3.67,2.13c-4.43,1.22-9.02-1.38-10.24-5.81
				c-0.86-3.1-11.04-62.83-11.04-62.83c-2.83,0.39-5.72,0.17-8.46-0.7c0,0-29.76,62.45-30.92,64.49c-0.37,0.66-0.83,1.26-1.36,1.79
				c-2.63,2.63-6.74,3.2-9.99,1.35c-1.93-1.09-3.33-2.88-3.92-5.02c-0.59-2.14-0.31-4.39,0.79-6.33c1.15-2.04,38.4-60.32,38.4-60.32
				c-0.24-0.21-0.48-0.41-0.7-0.64c-0.59-0.59-1.11-1.22-1.61-1.87c-21.54,15.09-41.36,31.21-42.28,31.75
				C56.06-327.4,50.95-328.76,48.65-332.73z M107.7-363.36c5.37,5.37,14.1,5.37,19.46,0c5.37-5.37,5.37-14.1,0-19.47
				c-5.37-5.37-14.1-5.37-19.47,0C102.33-377.46,102.33-368.73,107.7-363.36z"/>
			<path class="st3" d="M228.11-277.98c-2.89,1.99-6.86,1.26-8.86-1.64c-0.46-0.67-16.51-29.86-26.21-47.52
				c-1.11,0.67-2.29,1.19-3.51,1.54c0,0,6.93,32.68,7.09,34.7c0.13,1.7-0.41,3.34-1.51,4.63c-1.11,1.29-2.65,2.08-4.34,2.21
				c-1.7,0.13-3.34-0.4-4.63-1.51c-1.29-1.1-2.07-2.65-2.21-4.34c-0.15-2.01,0.69-35.16,0.69-35.16c-1.58-0.1-3.14-0.45-4.63-1.06
				c0,0-19.51,29.25-20.57,30.65c-1.03,1.36-2.52,2.23-4.21,2.46c-1.69,0.23-3.36-0.21-4.71-1.24c-0.1-0.08-0.2-0.15-0.3-0.24
				c-2.55-2.19-2.96-6-0.93-8.69c1.06-1.39,25.48-26.62,25.48-26.62c-0.88-0.96-1.61-2.02-2.19-3.15c0,0-52.68,24.24-54.98,25.06
				c-2.15,0.77-4.55,0.32-6.29-1.16c-0.84-0.72-1.48-1.65-1.85-2.69c-0.57-1.6-0.49-3.33,0.24-4.87c0.73-1.54,2.01-2.7,3.61-3.27
				c2.29-0.82,58.18-15.8,58.18-15.8c-0.17-0.6-0.28-1.21-0.37-1.83c-16.54,3.17-41.32,7.91-42.58,8.01
				c-3.5,0.27-6.57-2.35-6.84-5.85c-0.27-3.5,2.35-6.57,5.85-6.84c1.25-0.1,26.64,0.76,43.48,1.34c0.03-0.28,0.04-0.55,0.08-0.83
				c0,0-28.27-5.02-30.25-5.66c-0.81-0.26-1.54-0.67-2.18-1.22c-1.96-1.68-2.71-4.35-1.92-6.8c0.52-1.62,1.65-2.94,3.16-3.71
				c1.52-0.78,3.24-0.91,4.86-0.39c1.98,0.64,27.71,13.34,27.71,13.34c0.53-1.05,1.17-2.06,1.96-2.99c0.22-0.26,0.46-0.49,0.68-0.72
				c0,0-30.21-31.01-31.59-32.75c-2.18-2.75-1.72-6.76,1.04-8.95c2.38-1.88,5.78-1.83,8.09,0.15c0.31,0.27,0.6,0.56,0.85,0.88
				c1.38,1.74,24.72,38.25,24.72,38.25c1.6-0.92,3.34-1.53,5.14-1.79c0,0-7.26-37.16-7.45-39.59c-0.13-1.7,0.4-3.34,1.51-4.63
				c1.11-1.29,2.65-2.08,4.34-2.21c1.7-0.13,3.34,0.4,4.63,1.51c1.29,1.1,2.08,2.65,2.21,4.34c0.19,2.43-2.31,40.44-2.31,40.44
				c0.73,0.04,1.45,0.14,2.17,0.29c3.81-19.29,10.37-52.44,10.61-53.24c1.02-3.36,4.57-5.28,7.93-4.27
				c3.36,1.01,5.27,4.57,4.26,7.93c-0.24,0.79-12.92,32.12-20.3,50.34c0.97,0.39,1.92,0.85,2.8,1.46c0,0,13.42-22.25,14.82-23.89
				c2.28-2.67,6.31-2.98,8.98-0.7c2.67,2.28,2.98,6.31,0.7,8.98c-1.41,1.65-21.38,18.49-21.38,18.49c0.83,1.03,1.49,2.14,2,3.31
				c0,0,38.08-19.13,40.39-19.96c2.15-0.78,4.57-0.34,6.31,1.15c0.83,0.71,1.47,1.63,1.84,2.67c1.19,3.3-0.52,6.96-3.82,8.15
				c-2.31,0.84-43.84,10.69-43.84,10.69c0.47,2.13,0.47,4.35-0.03,6.49c0,0,34.95,12.33,36.57,13.09c0.52,0.25,1.01,0.56,1.44,0.93
				c2.16,1.85,2.83,4.95,1.62,7.53c-0.72,1.54-2,2.71-3.6,3.29c-1.6,0.58-3.33,0.5-4.87-0.22c-1.63-0.76-33.84-19.04-33.84-19.04
				c-0.14,0.19-0.29,0.39-0.45,0.57c-0.42,0.48-0.87,0.92-1.33,1.33c12.78,15.53,33.97,41.29,34.44,41.96
				C231.73-283.94,231-279.97,228.11-277.98z M193.53-332.79c3.77-4.41,3.25-11.06-1.15-14.83c-4.41-3.77-11.07-3.26-14.84,1.15
				c-3.78,4.41-3.26,11.07,1.15,14.84C183.1-327.86,189.75-328.38,193.53-332.79z"/>
		</g>
	</g>
</pattern>
<g>
	<g>
		<g>
			<g>
				<path class="st5" d="M379.31,36.94c1.01,0.02,2,0.13,3,0.24l2.99,0.31l5.99,0.6c3.97,0.56,7.91,1.24,11.87,1.85"/>
				<path class="st5" d="M379.56,33.25c1.02,0.02,2.04,0.13,3.05,0.24l3.05,0.31l6.09,0.62c4.04,0.57,8.06,1.26,12.09,1.88"/>
				<path class="st5" d="M405.21,29.02c-4.18-0.65-8.34-1.36-12.53-1.95l-6.31-0.64l-3.15-0.32c-1.05-0.11-2.1-0.22-3.16-0.25"/>
				<path class="st5" d="M379.81,29.55c1.04,0.02,2.07,0.14,3.11,0.25l3.1,0.32l6.2,0.63c4.11,0.58,8.21,1.29,12.31,1.92"/>
				<path class="st5" d="M405.9,25.37c-4.25-0.66-8.49-1.39-12.75-1.99l-6.42-0.65l-3.21-0.33c-1.07-0.11-2.14-0.23-3.21-0.25"/>
			</g>
			<g>
				<path class="st5" d="M355.22,36.71c1-0.05,2.01-0.15,3.01-0.16l3.01-0.02l6.03-0.05c2.01-0.07,4.01,0.11,6.02,0.18l6.02,0.28"/>
				<path class="st5" d="M355.05,33.01c1.02-0.05,2.04-0.15,3.06-0.16l3.07-0.02l6.13-0.05c2.05-0.07,4.08,0.11,6.13,0.18l6.12,0.28
					"/>
				<path class="st5" d="M380.06,25.85l-6.34-0.29c-2.11-0.08-4.22-0.26-6.34-0.19l-6.34,0.05l-3.17,0.02
					c-1.06,0.01-2.11,0.11-3.17,0.16"/>
				<path class="st5" d="M354.88,29.31c1.04-0.05,2.08-0.15,3.12-0.16l3.12-0.02l6.24-0.05c2.08-0.07,4.15,0.11,6.23,0.19l6.23,0.29
					"/>
				<path class="st5" d="M380.31,22.16l-6.44-0.3c-2.15-0.08-4.29-0.26-6.44-0.19l-6.45,0.05l-3.22,0.02
					c-1.07,0.01-2.15,0.11-3.22,0.17"/>
			</g>
			<g>
				<path class="st5" d="M331.2,39.16c3.96-0.76,7.98-1.06,11.98-1.55l3-0.34l3.01-0.19l6.02-0.36"/>
				<path class="st5" d="M330.63,35.49c4.03-0.77,8.11-1.08,12.18-1.58l3.05-0.35l3.06-0.19l6.13-0.37"/>
				<path class="st5" d="M354.71,25.61l-6.33,0.38l-3.17,0.2l-3.15,0.36c-4.2,0.51-8.42,0.84-12.58,1.63"/>
				<path class="st5" d="M330.05,31.83c4.09-0.78,8.25-1.1,12.38-1.6l3.1-0.35l3.11-0.2l6.23-0.38"/>
				<path class="st5" d="M354.54,21.9l-6.43,0.39l-3.22,0.2l-3.2,0.36c-4.27,0.51-8.55,0.86-12.78,1.66"/>
			</g>
			<g>
				<path class="st5" d="M307.57,44.19c1.95-0.51,3.88-1.1,5.84-1.55l5.91-1.29l2.95-0.65l1.48-0.32l1.49-0.25l5.96-0.98"/>
				<path class="st5" d="M306.61,40.62c1.98-0.52,3.94-1.12,5.94-1.58l6-1.31l3-0.66l1.5-0.33l1.52-0.25l6.06-1"/>
				<path class="st5" d="M329.48,28.17l-6.26,1.03l-1.56,0.26l-1.55,0.34l-3.1,0.68l-6.2,1.35c-2.06,0.47-4.09,1.09-6.13,1.63"/>
				<path class="st5" d="M305.64,37.04c2.01-0.53,4.01-1.13,6.03-1.6l6.1-1.33l3.05-0.67l1.52-0.33l1.54-0.25l6.16-1.02"/>
				<path class="st5" d="M328.9,24.51l-6.36,1.05l-1.59,0.26l-1.57,0.34l-3.15,0.69l-6.3,1.37c-2.09,0.48-4.15,1.1-6.23,1.65"/>
			</g>
			<g>
				<path class="st5" d="M284.63,51.74l5.64-2.17c1.89-0.7,3.82-1.27,5.73-1.91l5.74-1.88l5.83-1.58"/>
				<path class="st5" d="M283.28,48.29l5.73-2.21c1.92-0.71,3.89-1.29,5.83-1.95l5.84-1.91l5.93-1.61"/>
				<path class="st5" d="M304.67,33.46l-6.12,1.67l-6.03,1.97c-2,0.67-4.03,1.28-6.02,2.01l-5.92,2.28"/>
				<path class="st5" d="M281.93,44.84l5.83-2.24c1.95-0.72,3.95-1.31,5.92-1.98l5.93-1.94l6.03-1.64"/>
				<path class="st5" d="M303.71,29.88l-6.22,1.69l-6.13,2c-2.04,0.69-4.1,1.3-6.11,2.04l-6.02,2.31"/>
			</g>
			<g>
				<path class="st5" d="M262.68,61.74l5.37-2.73c0.9-0.44,1.77-0.94,2.7-1.34l2.76-1.22l5.51-2.46l1.38-0.62l1.41-0.54l2.82-1.08"
					/>
				<path class="st5" d="M260.96,58.46l5.47-2.78c0.92-0.45,1.81-0.96,2.75-1.36l2.8-1.25l5.61-2.5l1.4-0.63l1.43-0.55l2.87-1.1"/>
				<path class="st5" d="M280.58,41.39l-2.96,1.14l-1.48,0.57l-1.45,0.64l-5.8,2.58l-2.9,1.29c-0.97,0.42-1.89,0.94-2.84,1.41
					l-5.65,2.88"/>
				<path class="st5" d="M259.23,55.18l5.56-2.83c0.93-0.46,1.84-0.97,2.79-1.39l2.85-1.27l5.7-2.54l1.43-0.64l1.46-0.56l2.91-1.12"
					/>
				<path class="st5" d="M279.23,37.94l-3.01,1.16l-1.5,0.58l-1.47,0.65l-5.89,2.62l-2.94,1.31c-0.99,0.43-1.92,0.96-2.89,1.43
					l-5.75,2.92"/>
			</g>
			<g>
				<path class="st5" d="M242.05,74.11l5.04-3.28c1.69-1.07,3.32-2.25,5.09-3.2l5.21-3.01l2.61-1.51c0.88-0.48,1.79-0.92,2.68-1.38"
					/>
				<path class="st5" d="M239.96,71.05l5.13-3.34c1.72-1.09,3.38-2.29,5.18-3.26l5.31-3.06l2.65-1.53c0.9-0.49,1.82-0.93,2.73-1.4"
					/>
				<path class="st5" d="M257.51,51.9c-0.94,0.49-1.89,0.94-2.82,1.45l-2.75,1.59l-5.49,3.17c-1.86,1.01-3.58,2.24-5.37,3.37
					l-5.31,3.46"/>
				<path class="st5" d="M237.86,67.99l5.22-3.4c1.75-1.11,3.44-2.32,5.27-3.32l5.4-3.12l2.7-1.56c0.91-0.5,1.85-0.95,2.77-1.43"/>
				<path class="st5" d="M255.78,48.62c-0.95,0.49-1.92,0.96-2.87,1.48l-2.79,1.61l-5.59,3.22c-1.89,1.03-3.64,2.28-5.46,3.43
					l-5.4,3.52"/>
			</g>
			<g>
				<path class="st5" d="M223.1,88.87c1.53-1.3,3.02-2.66,4.58-3.92l4.68-3.77c3.23-2.37,6.43-4.76,9.7-7.07"/>
				<path class="st5" d="M220.66,86.08c1.56-1.33,3.07-2.7,4.66-3.99l4.76-3.84c3.28-2.41,6.55-4.85,9.88-7.2"/>
				<path class="st5" d="M235.77,64.94c-3.46,2.43-6.84,4.96-10.24,7.47l-4.94,3.98c-1.64,1.33-3.21,2.75-4.82,4.12"/>
				<path class="st5" d="M218.22,83.29c1.58-1.35,3.13-2.75,4.74-4.06l4.85-3.91c3.34-2.46,6.67-4.95,10.06-7.33"/>
				<path class="st5" d="M233.67,61.88c-3.52,2.47-6.96,5.05-10.43,7.6l-5.02,4.05c-1.67,1.36-3.26,2.8-4.9,4.19"/>
			</g>
			<g>
				<path class="st5" d="M205.62,105.81c5.63-5.95,11.44-11.62,17.48-16.94"/>
				<path class="st5" d="M202.93,103.26c5.69-6.02,11.58-11.78,17.73-17.18"/>
				<path class="st5" d="M215.77,80.51c-6.35,5.59-12.41,11.51-18.23,17.67"/>
				<path class="st5" d="M200.23,100.72c5.76-6.09,11.73-11.93,17.98-17.42"/>
				<path class="st5" d="M213.33,77.72c-6.45,5.68-12.59,11.68-18.49,17.91"/>
			</g>
			<g>
				<path class="st5" d="M189.2,124.39c5.37-6.39,10.79-12.64,16.42-18.59"/>
				<path class="st5" d="M186.36,122.01c5.4-6.42,10.87-12.73,16.57-18.75"/>
				<path class="st5" d="M197.54,98.18c-5.83,6.16-11.39,12.57-16.85,19.07"/>
				<path class="st5" d="M183.52,119.63c5.43-6.46,10.95-12.82,16.71-18.91"/>
				<path class="st5" d="M194.84,95.63c-5.89,6.23-11.5,12.69-17,19.23"/>
			</g>
			<g>
				<path class="st5" d="M173.22,143.98c5.32-6.63,10.61-13.19,15.97-19.58"/>
				<path class="st5" d="M170.33,141.66c5.32-6.64,10.63-13.21,16.02-19.64"/>
				<path class="st5" d="M180.68,117.25c-5.46,6.51-10.8,13.13-16.13,19.77"/>
				<path class="st5" d="M167.44,139.34c5.33-6.64,10.65-13.24,16.08-19.7"/>
				<path class="st5" d="M177.84,114.87c-5.49,6.54-10.85,13.19-16.18,19.83"/>
			</g>
			<g>
				<path class="st5" d="M157,163.97c5.53-6.67,10.9-13.36,16.22-20"/>
				<path class="st5" d="M154.15,161.61c5.5-6.63,10.86-13.31,16.19-19.95"/>
				<path class="st5" d="M164.55,137.02c-5.33,6.64-10.66,13.29-16.11,19.86"/>
				<path class="st5" d="M151.3,159.24c5.47-6.6,10.82-13.27,16.15-19.9"/>
				<path class="st5" d="M161.66,134.7c-5.33,6.64-10.65,13.28-16.07,19.81"/>
			</g>
			<g>
				<path class="st5" d="M139.72,183.75c6.02-6.44,11.75-13.11,17.28-19.77"/>
				<path class="st5" d="M137.01,181.22c5.96-6.37,11.64-12.98,17.14-19.62"/>
				<path class="st5" d="M148.44,156.88c-5.44,6.57-11.02,13.06-16.86,19.3"/>
				<path class="st5" d="M134.3,178.7c5.9-6.31,11.53-12.86,17-19.46"/>
				<path class="st5" d="M145.59,154.51c-5.42,6.54-10.94,12.96-16.72,19.14"/>
			</g>
			<g>
				<path class="st5" d="M120.81,202.5c6.62-6.01,12.9-12.29,18.92-18.75"/>
				<path class="st5" d="M118.32,199.75c6.53-5.93,12.73-12.14,18.69-18.52"/>
				<path class="st5" d="M131.58,176.18c-5.83,6.26-11.89,12.31-18.23,18.07"/>
				<path class="st5" d="M115.84,197c6.43-5.84,12.57-11.98,18.46-18.3"/>
				<path class="st5" d="M128.87,173.65c-5.77,6.19-11.75,12.17-18,17.85"/>
			</g>
			<g>
				<path class="st5" d="M99.76,219.44c7.39-5.26,14.42-10.94,21.04-16.94"/>
				<path class="st5" d="M97.62,216.42c7.25-5.17,14.17-10.75,20.7-16.67"/>
				<path class="st5" d="M113.35,194.25C107,200,100.32,205.4,93.33,210.38"/>
				<path class="st5" d="M95.47,213.4c7.12-5.08,13.92-10.56,20.36-16.4"/>
				<path class="st5" d="M110.87,191.5c-6.25,5.67-12.83,10.97-19.68,15.85"/>
			</g>
			<g>
				<path class="st5" d="M76.36,233.67c8.23-4.12,16.01-8.97,23.4-14.23"/>
				<path class="st5" d="M74.68,230.36c8.05-4.03,15.68-8.79,22.93-13.94"/>
				<path class="st5" d="M93.33,210.38c-6.99,4.97-14.3,9.54-22,13.38"/>
				<path class="st5" d="M73.01,227.06c7.87-3.93,15.34-8.6,22.47-13.66"/>
				<path class="st5" d="M91.18,207.36c-6.86,4.88-14.01,9.34-21.53,13.1"/>
			</g>
			<g>
				<path class="st5" d="M50.71,244.1c8.85-2.77,17.44-6.29,25.65-10.44"/>
				<path class="st5" d="M49.63,240.56c8.64-2.71,17.02-6.14,25.06-10.2"/>
				<path class="st5" d="M71.33,223.76c-7.68,3.87-15.66,7.14-23.88,9.72"/>
				<path class="st5" d="M48.54,237.02c8.43-2.64,16.61-5.99,24.47-9.96"/>
				<path class="st5" d="M69.65,220.45c-7.5,3.78-15.28,6.97-23.28,9.48"/>
			</g>
		</g>
	</g>
</g>
<g>
	<g>
		<g>
			<g>
				<path class="st5" d="M76.79,226.9c-8.57-0.88-17.22-1.69-25.98-2.26"/>
				<path class="st5" d="M76.4,230.59c-8.55-0.88-17.15-1.68-25.83-2.25"/>
				<path class="st5" d="M50.1,235.74c8.54,0.56,17.05,1.35,25.54,2.22"/>
				<path class="st5" d="M76.02,234.28c-8.52-0.88-17.08-1.67-25.69-2.23"/>
				<path class="st5" d="M49.86,239.44c8.47,0.55,16.93,1.34,25.4,2.21"/>
			</g>
			<g>
				<line class="st5" x1="102.29" y1="229.68" x2="76.79" y2="226.9"/>
				<line class="st5" x1="101.88" y1="233.36" x2="76.41" y2="230.59"/>
				<line class="st5" x1="75.64" y1="237.96" x2="101.08" y2="240.73"/>
				<line class="st5" x1="101.48" y1="237.05" x2="76.02" y2="234.28"/>
				<line class="st5" x1="75.26" y1="241.65" x2="100.68" y2="244.41"/>
			</g>
			<g>
				<path class="st5" d="M127.41,232.15c-8.31-0.68-16.69-1.56-25.12-2.48"/>
				<path class="st5" d="M127.11,235.85c-8.36-0.68-16.77-1.57-25.22-2.49"/>
				<path class="st5" d="M101.08,240.73c8.47,0.92,16.94,1.81,25.41,2.5"/>
				<path class="st5" d="M126.8,239.54c-8.42-0.69-16.86-1.58-25.32-2.49"/>
				<path class="st5" d="M100.68,244.41c8.48,0.92,16.98,1.82,25.51,2.51"/>
			</g>
			<g>
				<path class="st5" d="M152.53,233.77c-8.34-0.44-16.91-0.95-25.12-1.61"/>
				<path class="st5" d="M152.35,237.47c-8.39-0.44-16.95-0.95-25.24-1.62"/>
				<path class="st5" d="M126.5,243.23c8.46,0.68,16.98,1.19,25.48,1.64"/>
				<path class="st5" d="M152.16,241.17c-8.44-0.45-16.98-0.95-25.36-1.63"/>
				<path class="st5" d="M126.2,246.93c8.55,0.69,17.05,1.19,25.6,1.65"/>
			</g>
			<g>
				<path class="st5" d="M177.24,234.29c-8.11,0.15-16.36-0.11-24.71-0.53"/>
				<path class="st5" d="M177.31,238c-8.23,0.16-16.56-0.11-24.96-0.53"/>
				<path class="st5" d="M151.98,244.87c8.49,0.42,16.99,0.7,25.46,0.54"/>
				<path class="st5" d="M177.38,241.7c-8.35,0.16-16.77-0.11-25.21-0.53"/>
				<path class="st5" d="M151.79,248.57c8.54,0.43,17.12,0.7,25.72,0.54"/>
			</g>
			<g>
				<path class="st5" d="M201.11,232.45c-7.77,1.14-15.76,1.69-23.87,1.84"/>
				<path class="st5" d="M201.65,236.12c-7.97,1.17-16.11,1.73-24.34,1.88"/>
				<path class="st5" d="M177.44,245.41c8.47-0.16,16.93-0.73,25.29-1.96"/>
				<path class="st5" d="M202.19,239.79c-8.16,1.2-16.46,1.76-24.81,1.92"/>
				<path class="st5" d="M177.51,249.11c8.59-0.16,17.21-0.74,25.76-1.99"/>
			</g>
			<g>
				<path class="st5" d="M223.67,227.08c-7.23,2.49-14.78,4.23-22.56,5.37"/>
				<path class="st5" d="M224.88,230.58c-7.47,2.57-15.26,4.37-23.22,5.54"/>
				<path class="st5" d="M202.73,243.45c8.35-1.23,16.6-3.12,24.56-5.86"/>
				<path class="st5" d="M226.09,234.09c-7.72,2.66-15.74,4.5-23.89,5.7"/>
				<path class="st5" d="M203.27,247.12c8.55-1.26,17.03-3.2,25.23-6.03"/>
			</g>
			<g>
				<path class="st5" d="M244.6,217.41c-6.73,3.9-13.73,7.1-20.93,9.67"/>
				<path class="st5" d="M246.47,220.61c-6.92,4.01-14.15,7.32-21.59,9.98"/>
				<path class="st5" d="M227.3,237.59c7.93-2.83,15.61-6.35,22.91-10.58"/>
				<path class="st5" d="M248.34,223.81c-7.11,4.12-14.57,7.54-22.25,10.28"/>
				<path class="st5" d="M228.51,241.09c8.17-2.91,16.08-6.54,23.57-10.89"/>
			</g>
			<g>
				<path class="st5" d="M263.9,203.89c-6.18,4.98-12.61,9.53-19.3,13.51"/>
				<path class="st5" d="M266.25,206.76c-6.31,5.09-12.9,9.75-19.78,13.85"/>
				<path class="st5" d="M250.21,227c7.25-4.31,14.16-9.2,20.74-14.51"/>
				<path class="st5" d="M268.6,209.63c-6.44,5.2-13.19,9.98-20.26,14.18"/>
				<path class="st5" d="M252.08,230.21c7.44-4.42,14.5-9.43,21.22-14.85"/>
			</g>
			<g>
				<path class="st5" d="M281.49,187.51c-5.62,5.8-11.48,11.3-17.59,16.38"/>
				<path class="st5" d="M284.16,190.07c-5.71,5.9-11.67,11.49-17.92,16.69"/>
				<path class="st5" d="M270.94,212.49c6.5-5.41,12.68-11.21,18.57-17.3"/>
				<path class="st5" d="M286.84,192.63c-5.8,5.99-11.87,11.69-18.25,16.99"/>
				<path class="st5" d="M273.29,215.36c6.63-5.52,12.92-11.42,18.9-17.6"/>
			</g>
			<g>
				<path class="st5" d="M297.5,169.07c-5.1,6.41-10.46,12.54-16.01,18.44"/>
				<path class="st5" d="M300.4,171.38c-5.16,6.49-10.6,12.7-16.23,18.69"/>
				<path class="st5" d="M289.52,195.19c5.81-6.17,11.39-12.56,16.68-19.2"/>
				<path class="st5" d="M303.3,173.69c-5.22,6.56-10.73,12.87-16.46,18.94"/>
				<path class="st5" d="M292.2,197.76c5.9-6.26,11.55-12.74,16.9-19.45"/>
			</g>
			<g>
				<path class="st5" d="M312.17,149.19c-4.67,6.84-9.61,13.43-14.67,19.88"/>
				<path class="st5" d="M315.22,151.3c-4.71,6.9-9.7,13.56-14.82,20.08"/>
				<path class="st5" d="M306.2,175.99c5.24-6.67,10.33-13.47,15.12-20.49"/>
				<path class="st5" d="M318.27,153.4c-4.75,6.96-9.79,13.69-14.97,20.29"/>
				<path class="st5" d="M309.1,178.3c5.3-6.75,10.45-13.62,15.28-20.7"/>
			</g>
			<g>
				<path class="st5" d="M325.82,128.26c-4.42,7.14-8.97,14.11-13.65,20.93"/>
				<path class="st5" d="M328.96,130.22c-4.44,7.18-9.02,14.2-13.74,21.08"/>
				<path class="st5" d="M321.32,155.5c4.8-7.01,9.45-14.13,13.93-21.37"/>
				<path class="st5" d="M332.11,132.18c-4.46,7.21-9.07,14.28-13.83,21.22"/>
				<path class="st5" d="M324.37,157.6c4.85-7.07,9.53-14.24,14.02-21.51"/>
			</g>
			<g>
				<path class="st5" d="M338.91,106.61c-4.32,7.3-8.66,14.53-13.1,21.65"/>
				<path class="st5" d="M342.1,108.5c-4.33,7.31-8.68,14.56-13.14,21.71"/>
				<path class="st5" d="M335.25,134.13c4.5-7.22,8.89-14.52,13.23-21.85"/>
				<path class="st5" d="M345.29,110.39c-4.33,7.32-8.7,14.6-13.18,21.78"/>
				<path class="st5" d="M338.4,136.09c4.52-7.26,8.92-14.58,13.27-21.92"/>
			</g>
			<g>
				<line class="st5" x1="351.91" y1="84.58" x2="338.92" y2="106.61"/>
				<line class="st5" x1="355.1" y1="86.47" x2="342.1" y2="108.5"/>
				<line class="st5" x1="348.48" y1="112.28" x2="361.47" y2="90.25"/>
				<line class="st5" x1="358.29" y1="88.36" x2="345.29" y2="110.39"/>
				<line class="st5" x1="351.67" y1="114.17" x2="364.66" y2="92.13"/>
			</g>
			<g>
				<path class="st5" d="M365.26,62.46c-4.56,7.36-9.01,14.75-13.36,22.13"/>
				<path class="st5" d="M368.41,64.41c-4.54,7.33-8.97,14.69-13.32,22.06"/>
				<path class="st5" d="M361.48,90.25c4.33-7.35,8.74-14.66,13.23-21.93"/>
				<path class="st5" d="M371.56,66.37c-4.52,7.3-8.94,14.64-13.27,21.99"/>
				<path class="st5" d="M364.66,92.13c4.33-7.34,8.72-14.63,13.19-21.86"/>
			</g>
			<g>
				<path class="st5" d="M379.48,40.53c-4.9,7.25-9.66,14.56-14.21,21.92"/>
				<path class="st5" d="M382.54,42.62c-4.87,7.19-9.6,14.45-14.12,21.79"/>
				<path class="st5" d="M374.71,68.32c4.48-7.27,9.15-14.44,13.95-21.52"/>
				<path class="st5" d="M385.6,44.71c-4.83,7.14-9.53,14.35-14.03,21.66"/>
				<path class="st5" d="M377.86,70.27c4.46-7.24,9.1-14.36,13.86-21.39"/>
			</g>
			<g>
				<path class="st5" d="M395.04,19.18c-5.43,6.99-10.63,14.11-15.57,21.35"/>
				<path class="st5" d="M397.96,21.47c-5.37,6.92-10.52,13.97-15.42,21.15"/>
				<path class="st5" d="M388.66,46.8c4.82-7.07,9.88-13.98,15.13-20.75"/>
				<path class="st5" d="M400.87,23.76c-5.31,6.84-10.41,13.83-15.27,20.95"/>
				<path class="st5" d="M391.72,48.88c4.78-7.01,9.79-13.86,14.98-20.55"/>
			</g>
		</g>
	</g>
</g>
<g>
	<g>
		<g>
			<path class="st5" d="M177.65,37.71c0.66-0.59,1.29-1.2,1.96-1.77c0.67-0.55,1.33-1.13,2-1.67c0.69-0.52,1.36-1.06,2.04-1.56
				l2.08-1.44l2.12-1.32l2.15-1.2l2.18-1.07l2.21-0.94"/>
			<path class="st5" d="M175.24,35.46c0.67-0.63,1.33-1.29,2.01-1.9c0.69-0.6,1.37-1.22,2.07-1.8c0.71-0.56,1.41-1.15,2.12-1.7
				l2.18-1.58l2.23-1.46l2.27-1.34l2.32-1.21l2.36-1.07"/>
			<path class="st5" d="M189.59,16.72l-2.67,1.35l-2.6,1.49l-2.52,1.62l-2.44,1.75l-2.36,1.86c-0.77,0.64-1.52,1.31-2.28,1.97
				c-0.75,0.67-1.46,1.38-2.2,2.07c-0.72,0.7-1.41,1.44-2.11,2.15"/>
			<path class="st5" d="M172.83,33.22c0.69-0.67,1.36-1.37,2.06-2.03c0.71-0.64,1.41-1.31,2.13-1.93c0.74-0.61,1.46-1.24,2.2-1.83
				l2.27-1.72l2.33-1.6l2.4-1.48l2.46-1.35l2.51-1.21"/>
			<path class="st5" d="M187.99,13.38l-2.82,1.48l-2.74,1.63l-2.64,1.76l-2.55,1.89c-0.83,0.65-1.63,1.33-2.45,2
				c-0.8,0.69-1.57,1.4-2.36,2.1c-0.77,0.72-1.51,1.47-2.26,2.2c-0.74,0.74-1.44,1.52-2.17,2.28"/>
		</g>
		<g>
			<path class="st5" d="M163.7,54.8c2.07-3.19,4.26-6.24,6.59-9.11c1.16-1.44,2.36-2.82,3.58-4.15c1.23-1.33,2.49-2.6,3.78-3.82"/>
			<path class="st5" d="M161.19,53.38c2.05-3.3,4.24-6.48,6.58-9.48c1.17-1.5,2.38-2.96,3.62-4.37c1.25-1.41,2.53-2.76,3.85-4.06"/>
			<path class="st5" d="M170.42,30.97c-1.38,1.47-2.71,2.98-3.99,4.54c-1.28,1.56-2.51,3.16-3.69,4.81
				c-2.37,3.28-4.54,6.71-6.56,10.23"/>
			<path class="st5" d="M158.68,51.96c4.07-6.81,8.74-13.22,14.15-18.75"/>
			<path class="st5" d="M168.01,28.72c-1.41,1.55-2.77,3.14-4.06,4.78c-1.29,1.64-2.54,3.31-3.73,5.02
				c-2.38,3.42-4.55,6.97-6.56,10.6"/>
		</g>
		<g>
			<path class="st5" d="M152.18,75.43c0.91-1.81,1.83-3.61,2.76-5.37c0.92-1.78,1.86-3.53,2.81-5.25c0.95-1.73,1.92-3.43,2.91-5.1
				c0.99-1.67,2-3.32,3.04-4.91"/>
			<path class="st5" d="M149.91,74.45c1.77-3.66,3.56-7.27,5.42-10.79c0.93-1.77,1.88-3.51,2.86-5.22c0.97-1.72,1.97-3.41,3-5.06"/>
			<path class="st5" d="M156.17,50.55c-1.01,1.76-1.99,3.54-2.93,5.35c-0.95,1.8-1.86,3.62-2.74,5.46
				c-1.78,3.67-3.47,7.39-5.12,11.13"/>
			<path class="st5" d="M147.65,73.47c1.71-3.7,3.45-7.36,5.27-10.96c0.91-1.8,1.84-3.58,2.8-5.34c0.95-1.76,1.94-3.5,2.96-5.2"/>
			<path class="st5" d="M153.66,49.13c-1.01,1.81-1.96,3.65-2.89,5.5c-0.93,1.85-1.82,3.71-2.69,5.58
				c-1.74,3.74-3.37,7.51-4.97,11.3"/>
		</g>
		<g>
			<path class="st5" d="M140.92,97.57c4.01-7.42,7.61-14.9,11.26-22.14"/>
			<path class="st5" d="M139.06,96.7c3.86-7.42,7.32-14.93,10.86-22.24"/>
			<path class="st5" d="M145.38,72.48c-3.31,7.48-6.49,15.04-10.05,22.46"/>
			<path class="st5" d="M137.19,95.82c3.71-7.41,7.03-14.95,10.45-22.35"/>
			<path class="st5" d="M143.11,71.5c-3.19,7.56-6.24,15.15-9.64,22.56"/>
		</g>
		<g>
			<path class="st5" d="M127.65,119.13l3.53-5.24c1.17-1.75,2.25-3.56,3.38-5.35c1.14-1.78,2.19-3.61,3.24-5.45
				c1.06-1.83,2.13-3.66,3.12-5.52"/>
			<path class="st5" d="M126.25,118.26l3.42-5.25c1.14-1.75,2.17-3.57,3.27-5.35c1.11-1.78,2.11-3.61,3.12-5.45
				c1.02-1.83,2.05-3.66,3-5.52"/>
			<path class="st5" d="M135.33,94.94c-0.88,1.86-1.83,3.68-2.77,5.51c-0.94,1.83-1.86,3.66-2.89,5.45
				c-1.02,1.79-1.98,3.6-3.04,5.36l-3.19,5.27"/>
			<path class="st5" d="M124.85,117.4l3.3-5.26c1.1-1.76,2.1-3.57,3.15-5.36c1.07-1.78,2.03-3.62,3.01-5.45
				c0.98-1.83,1.97-3.66,2.88-5.51"/>
			<path class="st5" d="M133.47,94.06c-0.84,1.86-1.75,3.68-2.65,5.51c-0.9,1.83-1.79,3.66-2.78,5.45c-0.98,1.79-1.9,3.61-2.92,5.37
				l-3.08,5.29"/>
		</g>
		<g>
			<path class="st5" d="M112.15,138.93c1.42-1.54,2.7-3.19,4.06-4.78l2.01-2.42l1.93-2.48c1.27-1.66,2.61-3.29,3.82-5.01
				c1.23-1.7,2.48-3.39,3.69-5.12"/>
			<path class="st5" d="M111.17,138.17c1.39-1.55,2.63-3.21,3.96-4.82l1.96-2.43l1.88-2.49c1.24-1.67,2.54-3.31,3.71-5.03l3.58-5.13
				"/>
			<path class="st5" d="M123.45,116.54l-3.36,5.17c-1.1,1.74-2.32,3.39-3.49,5.08l-1.77,2.52l-1.85,2.46
				c-1.25,1.63-2.43,3.31-3.75,4.88"/>
			<path class="st5" d="M110.2,137.41c1.35-1.56,2.57-3.23,3.85-4.85l1.9-2.45l1.82-2.51c1.2-1.68,2.47-3.32,3.6-5.05l3.47-5.15"/>
			<path class="st5" d="M122.04,115.67l-3.25,5.19c-1.06,1.74-2.25,3.4-3.38,5.1l-1.72,2.53l-1.8,2.48
				c-1.22,1.64-2.36,3.33-3.65,4.92"/>
		</g>
		<g>
			<path class="st5" d="M94.66,156.78c1.54-1.4,3.08-2.8,4.54-4.27c1.47-1.47,3.01-2.88,4.44-4.4l4.32-4.52l4.18-4.67"/>
			<path class="st5" d="M94.08,156.21c1.51-1.41,3.02-2.83,4.45-4.32c1.44-1.48,2.94-2.92,4.34-4.44l4.23-4.57l4.08-4.71"/>
			<path class="st5" d="M109.23,136.65l-3.88,4.78l-4.03,4.65c-1.33,1.56-2.77,3.03-4.15,4.54c-1.37,1.52-2.82,2.98-4.27,4.43"/>
			<path class="st5" d="M93.49,155.63c1.48-1.43,2.96-2.87,4.36-4.38c1.41-1.5,2.88-2.95,4.25-4.49l4.13-4.61l3.98-4.74"/>
			<path class="st5" d="M108.25,135.89l-3.78,4.82l-3.93,4.7c-1.3,1.57-2.71,3.06-4.06,4.59c-1.34,1.54-2.76,3.01-4.18,4.48"/>
		</g>
		<g>
			<path class="st5" d="M75.45,172.52c1.65-1.24,3.33-2.44,4.97-3.71l4.86-3.87c1.61-1.3,3.16-2.68,4.75-4.01
				c1.6-1.33,3.11-2.74,4.65-4.14"/>
			<path class="st5" d="M75.19,172.2c1.63-1.26,3.28-2.49,4.89-3.78l4.78-3.93c1.58-1.32,3.1-2.72,4.66-4.08
				c1.57-1.35,3.05-2.78,4.56-4.2"/>
			<path class="st5" d="M92.9,155.06c-1.45,1.45-2.87,2.93-4.38,4.32c-1.5,1.4-2.97,2.83-4.49,4.2l-4.62,4.06
				c-1.56,1.33-3.16,2.61-4.74,3.92"/>
			<path class="st5" d="M74.93,171.88c1.6-1.28,3.23-2.54,4.81-3.85l4.7-4c1.56-1.35,3.05-2.76,4.58-4.14
				c1.54-1.37,2.99-2.82,4.47-4.26"/>
			<path class="st5" d="M92.31,154.49c-1.42,1.47-2.81,2.97-4.3,4.37c-1.47,1.42-2.91,2.87-4.41,4.26l-4.54,4.13
				c-1.53,1.36-3.11,2.66-4.66,3.99"/>
		</g>
		<g>
			<path class="st5" d="M54.73,185.93l5.3-3.14c1.78-1.03,3.47-2.19,5.22-3.28c0.86-0.56,1.74-1.1,2.6-1.67l2.54-1.75
				c1.69-1.18,3.42-2.32,5.05-3.57"/>
			<path class="st5" d="M54.73,185.93l5.24-3.22c1.76-1.05,3.43-2.25,5.16-3.36c0.85-0.57,1.72-1.13,2.56-1.71l2.51-1.79
				c1.67-1.2,3.37-2.37,4.98-3.64"/>
			<path class="st5" d="M74.66,171.56c-1.56,1.33-3.22,2.54-4.84,3.79l-2.44,1.87c-0.82,0.61-1.67,1.19-2.5,1.79
				c-1.68,1.17-3.31,2.42-5.03,3.53l-5.12,3.39"/>
			<path class="st5" d="M54.73,185.93l5.18-3.31c1.74-1.08,3.39-2.3,5.09-3.45c0.84-0.58,1.7-1.15,2.53-1.75l2.47-1.83
				c1.64-1.23,3.32-2.42,4.91-3.72"/>
			<path class="st5" d="M74.4,171.24c-1.54,1.35-3.17,2.59-4.77,3.87l-2.41,1.91c-0.81,0.62-1.64,1.22-2.46,1.83
				c-1.66,1.2-3.27,2.47-4.97,3.61l-5.07,3.48"/>
		</g>
	</g>
</g>
<g>
	<g>
		<g>
			<polyline class="st5" points="383.87,165.82 386.63,165.23 389.37,164.75 392.1,164.4 394.82,164.18 397.51,164.08 
				400.17,164.11 402.79,164.26 405.37,164.56 			"/>
			<polyline class="st5" points="382.89,162.89 385.74,162.19 388.59,161.61 391.44,161.15 394.29,160.82 397.12,160.62 
				399.94,160.56 402.74,160.64 405.5,160.85 			"/>
			<polyline class="st5" points="405.77,153.45 402.63,153.38 399.49,153.47 396.35,153.72 393.22,154.11 390.11,154.65 
				387.02,155.32 383.95,156.11 380.92,157.04 			"/>
			<polyline class="st5" points="381.91,159.96 384.84,159.15 387.8,158.46 390.77,157.9 393.75,157.47 396.73,157.17 
				399.71,157.02 402.68,157.01 405.64,157.15 			"/>
			<polyline class="st5" points="405.91,149.74 402.58,149.75 399.26,149.93 395.96,150.27 392.68,150.76 389.44,151.39 
				386.23,152.17 383.06,153.08 379.94,154.11 			"/>
		</g>
		<g>
			<polyline class="st5" points="362.2,174.29 364.84,172.9 367.5,171.6 370.19,170.39 372.9,169.27 375.63,168.25 378.37,167.33 
				381.12,166.52 383.87,165.82 			"/>
			<polyline class="st5" points="360.83,172.24 363.49,170.74 366.18,169.34 368.9,168.02 371.66,166.79 374.43,165.66 
				377.23,164.63 380.05,163.7 382.89,162.89 			"/>
			<polyline class="st5" points="380.92,157.04 377.92,158.07 374.96,159.22 372.04,160.47 369.16,161.82 366.33,163.27 
				363.53,164.8 360.79,166.42 358.09,168.12 			"/>
			<polyline class="st5" points="359.46,170.18 362.14,168.58 364.86,167.07 367.61,165.64 370.41,164.31 373.24,163.06 
				376.1,161.92 378.99,160.89 381.9,159.96 			"/>
			<polyline class="st5" points="379.94,154.11 376.86,155.26 373.83,156.51 370.84,157.88 367.91,159.34 365.04,160.89 
				362.21,162.53 359.44,164.26 356.72,166.06 			"/>
		</g>
		<g>
			<path class="st5" d="M341.83,188.03c1.64-1.29,3.29-2.56,4.96-3.8c1.67-1.23,3.35-2.42,5.04-3.58l2.56-1.7l2.58-1.63l2.6-1.56
				l2.63-1.48"/>
			<path class="st5" d="M340.56,186.68c1.62-1.34,3.25-2.66,4.9-3.95c1.65-1.28,3.32-2.53,5.01-3.75l2.55-1.79l2.57-1.72l2.6-1.65
				l2.64-1.58"/>
			<path class="st5" d="M358.09,168.12l-2.65,1.78l-2.61,1.85l-2.57,1.91l-2.52,1.97c-1.66,1.34-3.31,2.7-4.93,4.09
				c-1.61,1.4-3.21,2.82-4.79,4.27"/>
			<path class="st5" d="M339.29,185.33c1.6-1.39,3.21-2.77,4.84-4.11c1.64-1.34,3.29-2.64,4.97-3.92l2.53-1.88l2.57-1.81l2.61-1.75
				l2.64-1.68"/>
			<path class="st5" d="M356.72,166.07l-2.66,1.88l-2.61,1.94l-2.56,2l-2.51,2.06c-1.65,1.39-3.29,2.81-4.89,4.26
				c-1.6,1.45-3.17,2.93-4.73,4.42"/>
		</g>
		<g>
			<path class="st5" d="M322.6,204.7c3.16-2.9,6.33-5.77,9.52-8.56c1.6-1.39,3.21-2.77,4.82-4.13c1.62-1.35,3.25-2.68,4.88-3.98"/>
			<path class="st5" d="M321.69,203.86c3.09-2.97,6.19-5.92,9.32-8.8c1.57-1.44,3.15-2.86,4.73-4.26c1.59-1.4,3.2-2.77,4.81-4.12"/>
			<path class="st5" d="M338.02,183.98c-1.57,1.45-3.12,2.92-4.66,4.41c-1.53,1.49-3.05,3-4.56,4.52c-3.01,3.05-5.97,6.15-8.92,9.27
				"/>
			<path class="st5" d="M320.79,203.02c3.02-3.05,6.05-6.07,9.12-9.03c1.54-1.48,3.09-2.94,4.65-4.39c1.57-1.44,3.14-2.87,4.74-4.27
				"/>
			<path class="st5" d="M336.75,182.63c-1.55,1.5-3.08,3.02-4.59,4.56c-1.51,1.54-3,3.09-4.48,4.66c-2.95,3.13-5.85,6.31-8.72,9.51"
				/>
		</g>
		<g>
			<path class="st5" d="M303.43,222.13c6.53-5.7,12.84-11.62,19.17-17.43"/>
			<path class="st5" d="M302.99,221.69c6.37-5.83,12.52-11.89,18.7-17.83"/>
			<path class="st5" d="M319.88,202.18c-5.89,6.24-11.72,12.55-17.77,18.65"/>
			<path class="st5" d="M302.55,221.26c6.21-5.96,12.2-12.15,18.24-18.24"/>
			<path class="st5" d="M318.97,201.34c-5.74,6.39-11.41,12.83-17.31,19.06"/>
		</g>
		<g>
			<path class="st5" d="M283,238.11l2.66-1.84l2.63-1.89c1.74-1.29,3.45-2.6,5.16-3.93c1.69-1.34,3.38-2.71,5.04-4.1
				c1.66-1.39,3.31-2.8,4.94-4.22"/>
			<path class="st5" d="M283,238.11l2.61-1.9l2.57-1.95c1.7-1.32,3.38-2.67,5.05-4.04c1.66-1.38,3.3-2.78,4.93-4.2
				c1.62-1.43,3.23-2.87,4.82-4.32"/>
			<path class="st5" d="M302.1,220.83c-1.52,1.52-3.05,3.03-4.59,4.52c-1.55,1.49-3.12,2.96-4.7,4.41c-1.59,1.44-3.2,2.86-4.83,4.26
				l-2.47,2.07l-2.51,2.02"/>
			<path class="st5" d="M283,238.11l2.56-1.96l2.52-2.01c1.66-1.36,3.31-2.74,4.94-4.15c1.62-1.42,3.22-2.85,4.81-4.31
				c1.58-1.46,3.15-2.93,4.71-4.42"/>
			<path class="st5" d="M301.66,220.4c-1.48,1.55-2.97,3.1-4.47,4.62c-1.51,1.52-3.04,3.03-4.58,4.51
				c-1.55,1.48-3.13,2.94-4.72,4.37l-2.42,2.12l-2.46,2.08"/>
		</g>
	</g>
</g>
<g>
	<g>
		<linearGradient id="SVGID_1_" gradientUnits="userSpaceOnUse" x1="203.2799" y1="141.2333" x2="294.1787" y2="141.2333">
			<stop  offset="0" style="stop-color:#7F47DD"/>
			<stop  offset="0.5169" style="stop-color:#FBAE17"/>
			<stop  offset="1" style="stop-color:#FBAE17"/>
		</linearGradient>
		<path class="st6" d="M203.77,183.07c0.48-2.2,3.34-2.82,5.15-1.87c1.1,0.58,1.86,1.67,2.3,2.81c0.26,0.66,0.37,1.34,0.49,2.04
			c0.33,1.81,0.15-3.83,0.05-2.24c-0.03,0.54-0.06,1.09-0.09,1.63c-0.09,1.86-0.07,3.72-0.06,5.58c0.01,1.4,0.04,2.78,0.49,4.12
			c0.77,2.33,2.5,4.26,4.56,5.55c4.54,2.83,10.08,2.17,13.86-1.6c3.88-3.86,5.42-9.49,6.89-14.6c7.32-25.54,11.06-52.98,26.79-75.16
			c7.53-10.63,17.55-19.57,29.8-24.31c0.16-0.06,0.02-2.27,0.02-2.5c0-0.22-0.16-2.45-0.02-2.5c-22.79,8.81-36.44,30.94-43.99,53.1
			c-4.61,13.56-7.51,27.61-11.23,41.42c-1.5,5.59-2.81,11.68-5.95,16.63c-2.81,4.42-7.57,7.36-12.9,5.94
			c-2.69-0.72-5.17-2.4-6.72-4.72c-0.73-1.09-1.23-2.33-1.44-3.63c-0.01-0.05-0.02-0.1-0.02-0.16c-0.15-1.82-0.18-1.11-0.08,2.12
			c0.05-0.62,0.07-1.25,0.1-1.87c0.04-0.85,0.05-1.7,0.05-2.55c0.02-3.09,0.5-7.26-2.11-9.56c-1.75-1.54-5.37-1.33-5.94,1.31
			C203.43,179.67,204.12,181.49,203.77,183.07L203.77,183.07z"/>
	</g>
</g>
<g>
	<g>
		<path class="st7" d="M298.2,82.5c0.65-2.59,4-3.97,5.91-5.53c2.24-1.84,4.22-4.01,5.75-6.48c1.37-2.21,2.38-4.66,2.85-7.23
			c0.53-2.93,0.4-6.04,0.28-9c-0.01-0.32-0.03,0.41-0.02,0.25c-0.02,0.49-0.01,1-0.01,1.49c0,1.02-0.02,2.05,0.02,3.08
			c0,0.09,0.14-4.73-0.04-2.57c-0.03,0.31-0.06,0.62-0.1,0.93c-0.07,0.49-0.15,0.98-0.26,1.46c-0.23,1.04-0.54,2.05-0.93,3.04
			c-0.84,2.12-2.02,4.1-3.44,5.88c-1.5,1.88-3.26,3.54-5.18,4.98c-1.7,1.27-4.26,2.45-4.82,4.69c-0.19,0.74-0.02,1.74-0.02,2.5
			C298.18,80.76,298.39,81.77,298.2,82.5L298.2,82.5z"/>
	</g>
</g>
<g>
	<g>
		<path class="st8" d="M115.02,259.95c-3.2-1.12-6.91-1.64-10.22-0.67c-1.43,0.42-2.83,1.18-3.68,2.44
			c-0.87,1.29-0.81,2.68-0.81,4.18c0,1.49-0.32,3.41,0.36,4.81c0.69,1.44,2.29,2.03,3.74,2.36c2.48,0.56,6.86,0.56,7.26,3.88
			c-0.01-0.24-0.01-0.49-0.02-0.73c0,0.1,0,0.21,0,0.31c0.01-1.42,0.01-2.85,0.02-4.27c-0.33,3.66-4.64,4.64-7.54,5.45
			c-3.89,1.08-7.78,2.16-11.67,3.24c-0.13,0.03-0.03,2.29-0.03,2.5c0,0.2,0.12,2.47,0.03,2.5c4.1-1.14,8.21-2.27,12.31-3.41
			c2.94-0.82,6.76-1.97,6.91-5.61c0.05-1.3,0.02-2.62,0.01-3.93c-0.01-0.66,0.03-1.32-0.24-1.94c-0.61-1.4-2.22-2-3.6-2.34
			c-2.77-0.68-7.23-0.58-7.52-4.36c0.01,0.61,0.02,1.22,0.02,1.84c0.01,4.09-0.1,2.06,0.53,0.92c0.29-0.54,0.69-1.02,1.16-1.41
			c1.07-0.9,2.44-1.4,3.81-1.66c3.04-0.58,6.28-0.09,9.17,0.92c-0.09-0.03,0.02-2.29,0.02-2.5
			C115.04,262.22,115.2,260.02,115.02,259.95L115.02,259.95z"/>
	</g>
</g>
<g>
	<g>
		<linearGradient id="SVGID_2_" gradientUnits="userSpaceOnUse" x1="171.8526" y1="161.5" x2="237.1861" y2="161.5">
			<stop  offset="0" style="stop-color:#7F47DD"/>
			<stop  offset="0.5169" style="stop-color:#FBAE17"/>
			<stop  offset="1" style="stop-color:#FBAE17"/>
		</linearGradient>
		<path class="st9" d="M237,127.2c-5.72-2.26-11.82-3.56-17.98-3.69c-5.24-0.11-10.7,0.68-15.36,3.19c-4.26,2.3-7.49,6.03-8.6,10.8
			c-0.6,2.59-0.44,5.36-0.4,8c0.03,2.1,0.38,4.16,1.4,6.03c2.48,4.56,7.73,6.2,12.49,7.16c4.78,0.97,9.9,1.46,14.07,4.24
			c1.91,1.27,3.5,3.05,4.24,5.25c0.19,0.56,0.29,1.13,0.4,1.71c0.22,1.15-0.73,1.65,0.04-2.54c-0.06,0.35-0.09,0.71-0.15,1.06
			c-0.23,1.19-0.64,2.34-1.17,3.43c-2.4,4.88-7.24,7.7-12.14,9.6c-6.61,2.55-13.56,4.35-20.33,6.44
			c-7.17,2.21-14.35,4.43-21.52,6.64c-0.14,0.04-0.02,2.28-0.02,2.5c0,0.21,0.13,2.47,0.02,2.5c12.62-3.9,25.3-7.66,37.88-11.7
			c5.09-1.63,10.54-3.68,14.08-7.89c3.47-4.12,3.76-9.17,3.38-14.34c-0.37-5.08-4.54-8.16-9.01-9.71
			c-4.81-1.67-9.99-1.78-14.78-3.51c-4.52-1.63-8.13-4.92-8.77-9.87c-0.01-0.11-0.03-0.22-0.04-0.33c-0.07-1.15-0.09-0.76-0.05,1.17
			c0,0.58,0,1.16,0,1.75c0.01-0.31,0.04-0.61,0.07-0.91c0.07-0.56,0.16-1.12,0.29-1.67c0.26-1.11,0.64-2.19,1.13-3.23
			c1-2.12,2.47-3.97,4.29-5.45c4.62-3.77,10.73-5.15,16.57-5.3c6.8-0.17,13.64,1.19,19.95,3.69c-0.11-0.04,0.02-2.28,0.02-2.5
			C237.02,129.46,237.19,127.28,237,127.2L237,127.2z"/>
	</g>
</g>
<g>
	<g>
		<path class="st8" d="M127.49,269.48c-3.95-2.31-10.49-1.24-12.4,3.31c-0.76,1.81-0.45,4.06-0.43,5.95
			c0.01,1.37,0.1,2.61,1.02,3.71c1.75,2.08,4.82,1.82,6.95,0.52c2.85-1.74,3.54-5.13,4.03-8.18c0.13-0.8,0.03-1.7,0.03-2.5
			c0-0.8-0.16-1.72-0.03-2.5c-0.24,1.43-0.34,2.81-0.35,4.26c-0.01,1.82-0.24,3.91,0.27,5.69c0.66,2.27,3.08,3.91,5.43,3.24
			c0.13-0.04,0.02-2.28,0.02-2.5c0-0.2-0.12-2.47-0.02-2.5c-1.6,0.46-3.28-0.17-4.4-1.37c-0.56-0.61-0.92-1.35-1.11-2.16
			c-0.06-0.24-0.08-0.49-0.13-0.74c0.77,3.74-0.15,4.44,0.04,2.74c0.06-0.56,0.15-1.11,0.24-1.66c0-1.67,0-3.33,0-5
			c-0.54,3.37-1.39,7.02-4.79,8.59c-1.38,0.64-3.03,0.87-4.48,0.3c-1.59-0.63-2.65-2.15-2.71-3.85c0,1.61,0,3.21,0,4.82
			c0.1-2.96,2.61-5.09,5.26-5.9c2.48-0.76,5.28-0.59,7.54,0.73c-0.16-0.09,0.03-2.24,0.03-2.5c0-0.59,0-1.18-0.01-1.77
			C127.5,270.12,127.55,269.52,127.49,269.48L127.49,269.48z"/>
	</g>
</g>
<g>
	<g>
		<path class="st8" d="M135.42,272.86c0.01,0.16,0.03,0.31,0.04,0.47c0-0.11-0.01-0.23-0.01-0.34c-0.08-5.69,0.09-3.98-0.12-2.77
			c-0.05,0.31-0.1,0.63-0.15,0.94c-0.07,0.46-0.14,0.92-0.17,1.39c-0.08,1.26-0.04,2.54-0.03,3.8c0.01,1.86-0.11,4.01,1.66,5.16
			c1.46,0.94,3.45,0.72,4.95,0.02c1.83-0.85,2.92-2.58,3.53-4.45c0.29-0.89,0.37-1.83,0.65-2.71c0.21-0.66,0.04-0.22,0.13,0.08
			c0.08,0.26,0.09,0.62,0.12,0.88c0.09,0.67,0.17,1.33,0.23,2c0.06,0.64,0.09,1.28,0.15,1.92c0.16,1.75,0.06-2.34,0.03-2.15
			c-0.07,0.4-0.04,0.83-0.07,1.24c-0.11,1.25-0.32,2.49-0.66,3.69c-1.07,3.77-3.57,7-7.02,8.89c-4.17,2.29-9.36,2.09-13.13-0.91
			c0.2,0.16-0.03,2.19-0.03,2.5c0,0.36-0.27,2.27,0.03,2.5c3.67,2.91,8.7,3.2,12.82,1.08c3.97-2.04,6.66-5.81,7.6-10.14
			c0.57-2.62,0.51-5.33,0.51-7.99c-0.01-2.48-0.12-4.94-0.43-7.4c-0.04-0.3-0.08-0.59-0.12-0.88c-0.05-0.36,0.11-1.01-0.16-0.3
			c-0.17,0.44-0.19,0.99-0.3,1.45c-0.26,1.08-0.6,2.16-1.16,3.13c-1.05,1.82-2.84,3.01-4.96,3.16c-1.03,0.07-2.13-0.13-2.97-0.78
			c-0.47-0.36-0.82-0.85-1.05-1.39c-0.09-0.22-0.15-0.45-0.21-0.68c-0.54-1.85-0.44,4.6-0.02,2.37c0.53-2.84,0.58-5.9,0.31-8.77
			C135.58,269.51,135.27,271.2,135.42,272.86L135.42,272.86z"/>
	</g>
</g>
<g>
	<g>
		<path class="st8" d="M171.44,275.27c0.3-0.79,1.33-0.97,2.06-0.71c0.9,0.33,1.3,1.23,1.32,2.13c0-1.52,0-3.05-0.01-4.57
			c-0.02,1.24-0.72,2.39-0.79,3.63c-0.09,1.41-0.03,2.84-0.02,4.25c0.01,0.8-0.02,1.52,0.4,2.23c-0.05-0.08,0.02-0.74,0.02-0.73
			c0.01-0.48,0.01-0.96,0.01-1.44c0-0.91,0.04-1.83-0.02-2.74c-0.02-0.35-0.04-0.7-0.06-1.04c-0.05-1.43-0.06-0.35-0.01,3.25
			c0.01-0.23,0.03-0.46,0.06-0.69c0.07-0.54,0.18-1.08,0.37-1.59c0.34-0.94,0.91-1.82,1.7-2.45c1.44-1.16,3.83-1.49,5.33-0.23
			c0.39,0.33,0.68,0.76,0.85,1.24c0.08,0.23,0.14,0.46,0.18,0.7c0.35,2.12,0.21-5.66,0.03-3.45c-0.12,1.46-0.25,2.84-0.26,4.31
			c-0.01,2.22-0.52,6.16,2.63,6.52c-0.16-0.02,0.23-4.97,0-5c-0.88-0.1-1.61-0.58-2.08-1.33c-0.23-0.37-0.35-0.75-0.45-1.17
			c-0.01-0.04-0.01-0.08-0.02-0.12c-0.01,1.17-0.01,2.35-0.02,3.52c0.02-0.12,0.02-0.25,0.04-0.37c0.03-0.29,0.07-0.58,0.11-0.87
			c0.19-1.61,0.12-3.26,0.11-4.88c-0.01-1.01,0.07-2.11-0.34-3.05c-0.72-1.64-2.7-2.1-4.32-1.71c-1.77,0.43-3.05,1.93-3.58,3.62
			c-0.38,1.24-0.37,2.56-0.37,3.85c-0.01,1.92-0.02,3.84,0.1,5.76c0-1.64,0-3.27,0.01-4.91c-0.24-0.4-0.35-0.78-0.38-1.24
			c0.01,0.41,0.01,0.83,0.02,1.24c-0.15,3.16-0.14,4.12,0.05,2.88c0.03-0.15,0.06-0.3,0.1-0.45c0.07-0.3,0.17-0.6,0.26-0.89
			c0.15-0.48,0.29-0.96,0.35-1.46c0.09-0.78,0.05-1.58,0.05-2.36c0-1.09,0.05-2.2-0.03-3.29c-0.06-0.86-0.4-1.71-1.25-2.07
			c-0.73-0.3-1.83-0.13-2.13,0.68c-0.06,0.16-0.02,0.61-0.02,0.73c-0.01,0.59-0.01,1.18-0.01,1.77c0,0.59,0,1.18,0.01,1.77
			C171.42,274.73,171.5,275.1,171.44,275.27L171.44,275.27z"/>
	</g>
</g>
<g>
	<g>
		<path class="st8" d="M259.61,271.76c7.1-2.92,13.17-8.25,16.38-15.29c0-1.67,0-3.33,0-5c-0.67,4.54-1.34,9.09-2,13.63
			c-0.6,4.09-0.86,8.52-2.47,12.37c-1.29,3.08-3.74,5.77-7.02,6.71c-2.93,0.84-6.67,0.05-8.35-2.67c0.04,0.07-0.02,0.74-0.02,0.73
			c-0.01,0.59-0.01,1.18-0.01,1.77c0,0.59,0,1.18,0.01,1.77c0,0.17-0.07,0.59,0.02,0.73c1.69,2.72,5.42,3.5,8.35,2.67
			c3.28-0.93,5.74-3.64,7.02-6.71c1.62-3.85,1.87-8.28,2.47-12.37c0.67-4.54,1.34-9.09,2-13.63c0.12-0.8,0.02-1.69,0.02-2.5
			c0-0.59,0-1.18-0.01-1.77c0-0.18-0.09-0.58-0.02-0.73c-3.21,7.04-9.28,12.37-16.38,15.29c-0.17,0.07-0.03,2.26-0.03,2.5
			C259.59,269.49,259.76,271.7,259.61,271.76L259.61,271.76z"/>
	</g>
</g>
<g>
	<g>
		<path class="st8" d="M196.8,257.61c-0.96,3.06-1.79,6.16-2.49,9.29c-0.65,2.93-1.32,5.94-1.6,8.93c-0.15,1.57-0.07,3.19-0.06,4.76
			c0.01,1.08-0.06,2.27,0.57,3.21c1.47,2.21,4.68,1.14,6.64,0.36c0.16-0.06,0.03-2.26,0.03-2.5c0-0.23-0.17-2.44-0.03-2.5
			c-1.69,0.67-3.91,1.48-5.65,0.53c-0.97-0.53-1.12-1.28-1.47-2.23c-0.03-0.09-0.26,5.47,0.01,3.07c0.02-0.22,0.06-0.43,0.09-0.64
			c0.1-0.69,0.21-1.37,0.32-2.06c0.86-5.15,2.09-10.23,3.65-15.22c0.22-0.7,0.03-1.77,0.03-2.5c0-0.59,0-1.18-0.01-1.77
			C196.82,258.14,196.74,257.8,196.8,257.61L196.8,257.61z"/>
	</g>
</g>
<g>
	<g>
		<path class="st8" d="M190.12,272.39c-0.15-0.29-0.25-0.58-0.27-0.91c0,1.39,0.01,2.79,0.01,4.18c-0.01,0.74,0.09-0.05,0.19-0.29
			c0.1-0.24,0.22-0.46,0.37-0.67c0.32-0.46,0.73-0.86,1.19-1.18c1.06-0.73,2.34-1.09,3.55-1.48c1.99-0.64,4.72-1.64,4.89-4.09
			c0.07-1.02,0.02-2.06,0.02-3.08c0-0.5,0-1-0.01-1.49c0-0.05,0-0.49-0.02-0.25c-0.09,1.36-1.32,2.36-2.44,2.96
			c-1.38,0.74-2.94,1.05-4.39,1.62c-1.3,0.51-2.62,1.31-3.17,2.66c-0.11,0.27-0.18,0.56-0.2,0.85c-0.07,0.88-0.03,1.78-0.03,2.67
			c0,0.86-0.05,1.73,0.03,2.58c0.03,0.33,0.12,0.62,0.27,0.92c-0.05-0.09,0.02-0.72,0.02-0.73c0.01-0.59,0.01-1.18,0.01-1.77
			c0-0.59,0-1.18-0.01-1.77C190.14,272.94,190.21,272.55,190.12,272.39L190.12,272.39z"/>
	</g>
</g>
<g>
	<g>
		<path class="st8" d="M164.27,269.48c-3.95-2.31-10.49-1.24-12.4,3.31c-0.76,1.81-0.45,4.06-0.43,5.95
			c0.01,1.37,0.1,2.61,1.02,3.71c1.75,2.08,4.82,1.82,6.95,0.52c2.85-1.74,3.54-5.13,4.03-8.18c0.13-0.8,0.02-1.7,0.02-2.5
			c0-0.8-0.16-1.72-0.02-2.5c-0.24,1.43-0.34,2.81-0.35,4.26c-0.01,1.82-0.24,3.91,0.27,5.69c0.66,2.27,3.08,3.91,5.43,3.24
			c0.13-0.04,0.03-2.28,0.03-2.5c0-0.2-0.12-2.47-0.03-2.5c-1.6,0.46-3.28-0.17-4.4-1.37c-0.56-0.61-0.92-1.35-1.11-2.16
			c-0.06-0.24-0.08-0.49-0.13-0.74c0.77,3.74-0.15,4.44,0.04,2.74c0.06-0.56,0.15-1.11,0.24-1.66c0-1.67,0-3.33,0-5
			c-0.54,3.37-1.39,7.02-4.79,8.59c-1.38,0.64-3.03,0.87-4.48,0.3c-1.59-0.63-2.65-2.15-2.71-3.85c0,1.61,0,3.21,0,4.82
			c0.1-2.96,2.61-5.09,5.26-5.9c2.48-0.76,5.28-0.59,7.54,0.73c-0.16-0.09,0.02-2.24,0.02-2.5c0-0.59,0-1.18-0.01-1.77
			C164.29,270.12,164.33,269.52,164.27,269.48L164.27,269.48z"/>
	</g>
</g>
<g>
	<g>
		<path class="st8" d="M326.48,270.02c-3.97-2.37-10.49-1.21-12.38,3.37c-0.75,1.82-0.45,4.07-0.43,5.99
			c0.01,1.38,0.1,2.64,1.02,3.75c1.74,2.1,4.81,1.86,6.94,0.53c2.86-1.78,3.54-5.23,4.03-8.32c0.13-0.8,0.02-1.69,0.02-2.5
			c0-0.8-0.15-1.71-0.02-2.5c-0.24,1.45-0.34,2.85-0.35,4.31c-0.01,1.83-0.24,3.92,0.27,5.72c0.65,2.27,3.05,3.98,5.42,3.29
			c0.13-0.04,0.02-2.28,0.02-2.5c0-0.2-0.12-2.47-0.02-2.5c-1.61,0.47-3.28-0.18-4.39-1.39c-0.57-0.62-0.92-1.37-1.11-2.19
			c-0.06-0.25-0.08-0.5-0.13-0.75c0.77,3.75-0.14,4.4,0.04,2.7c0.06-0.56,0.15-1.13,0.24-1.69c0-1.67,0-3.33,0-5
			c-0.54,3.4-1.37,7.13-4.78,8.73c-1.38,0.65-3.03,0.88-4.47,0.3c-1.61-0.64-2.65-2.2-2.7-3.92c0,1.61,0,3.21,0,4.82
			c0.19-6.02,8.43-7.84,12.78-5.25c-0.02-0.01,0.02-0.83,0.02-0.73c0.01-0.59,0.01-1.18,0.01-1.77c0-0.59,0-1.18-0.01-1.77
			C326.5,270.65,326.55,270.06,326.48,270.02L326.48,270.02z"/>
	</g>
</g>
<g>
	<g>
		<path class="st8" d="M290.56,270.02c-3.97-2.37-10.49-1.21-12.38,3.37c-0.75,1.82-0.45,4.07-0.43,5.99
			c0.01,1.38,0.1,2.64,1.02,3.75c1.74,2.1,4.81,1.86,6.94,0.53c2.86-1.78,3.54-5.23,4.03-8.32c0.13-0.8,0.02-1.69,0.02-2.5
			c0-0.8-0.15-1.71-0.02-2.5c-0.24,1.45-0.34,2.85-0.35,4.31c-0.01,1.83-0.24,3.92,0.27,5.72c0.65,2.27,3.05,3.98,5.42,3.29
			c0.13-0.04,0.02-2.28,0.02-2.5c0-0.2-0.12-2.47-0.02-2.5c-1.61,0.47-3.28-0.18-4.39-1.39c-0.57-0.62-0.92-1.37-1.11-2.19
			c-0.06-0.25-0.08-0.5-0.13-0.75c0.77,3.75-0.14,4.4,0.04,2.7c0.06-0.56,0.15-1.13,0.24-1.69c0-1.67,0-3.33,0-5
			c-0.54,3.4-1.37,7.13-4.78,8.73c-1.38,0.65-3.03,0.88-4.47,0.3c-1.61-0.64-2.65-2.2-2.7-3.92c0,1.61,0,3.21,0,4.82
			c0.19-6.02,8.43-7.84,12.78-5.25c-0.02-0.01,0.02-0.83,0.02-0.73c0.01-0.59,0.01-1.18,0.01-1.77c0-0.59,0-1.18-0.01-1.77
			C290.58,270.65,290.63,270.06,290.56,270.02L290.56,270.02z"/>
	</g>
</g>
<g>
	<g>
		<path class="st8" d="M224.21,275.27c0.3-0.79,1.33-0.97,2.06-0.71c0.9,0.33,1.3,1.23,1.32,2.13c0-1.52,0-3.05-0.01-4.57
			c-0.02,1.24-0.72,2.39-0.79,3.63c-0.09,1.41-0.03,2.84-0.02,4.25c0.01,0.8-0.02,1.52,0.4,2.23c-0.05-0.08,0.02-0.74,0.02-0.73
			c0.01-0.48,0.01-0.96,0.01-1.44c0-0.91,0.04-1.83-0.02-2.74c-0.02-0.35-0.04-0.7-0.06-1.04c-0.05-1.43-0.06-0.35-0.01,3.25
			c0.01-0.23,0.03-0.46,0.06-0.69c0.07-0.54,0.18-1.08,0.37-1.59c0.34-0.94,0.91-1.82,1.7-2.45c1.44-1.16,3.83-1.49,5.33-0.23
			c0.39,0.33,0.68,0.76,0.85,1.24c0.08,0.23,0.14,0.46,0.18,0.7c0.35,2.12,0.21-5.66,0.03-3.45c-0.12,1.46-0.25,2.84-0.26,4.31
			c-0.01,2.22-0.52,6.16,2.63,6.52c-0.16-0.02,0.23-4.97,0-5c-0.88-0.1-1.61-0.58-2.08-1.33c-0.23-0.37-0.35-0.75-0.45-1.17
			c-0.01-0.04-0.01-0.08-0.02-0.12c-0.01,1.17-0.01,2.35-0.02,3.52c0.02-0.12,0.02-0.25,0.04-0.37c0.03-0.29,0.07-0.58,0.11-0.87
			c0.19-1.61,0.12-3.26,0.11-4.88c-0.01-1.01,0.07-2.11-0.34-3.05c-0.72-1.64-2.7-2.1-4.32-1.71c-1.77,0.43-3.05,1.93-3.58,3.62
			c-0.38,1.24-0.37,2.56-0.37,3.85c-0.01,1.92-0.02,3.84,0.1,5.76c0-1.64,0-3.27,0.01-4.91c-0.24-0.4-0.35-0.78-0.38-1.24
			c0.01,0.41,0.01,0.83,0.02,1.24c-0.15,3.16-0.14,4.12,0.05,2.88c0.03-0.15,0.06-0.3,0.1-0.45c0.07-0.3,0.17-0.6,0.26-0.89
			c0.15-0.48,0.29-0.96,0.35-1.46c0.09-0.78,0.05-1.58,0.05-2.36c0-1.09,0.05-2.2-0.03-3.29c-0.06-0.86-0.4-1.71-1.25-2.07
			c-0.73-0.3-1.83-0.13-2.13,0.68c-0.06,0.16-0.02,0.61-0.02,0.73c-0.01,0.59-0.01,1.18-0.01,1.77c0,0.59,0,1.18,0.01,1.77
			C224.2,274.73,224.28,275.1,224.21,275.27L224.21,275.27z"/>
	</g>
</g>
<g>
	<g>
		<path class="st8" d="M296.92,275.82c0.29-0.79,1.33-0.99,2.05-0.72c0.91,0.33,1.3,1.26,1.32,2.17c0-1.52,0-3.05-0.01-4.57
			c-0.02,1.26-0.72,2.42-0.79,3.68c-0.08,1.46-0.03,2.93-0.02,4.39c0.01,0.76,0,1.46,0.4,2.13c-0.05-0.08,0.02-0.73,0.02-0.73
			c0.01-0.48,0.01-0.96,0.01-1.44c0-0.91,0.04-1.83-0.02-2.74c-0.02-0.33-0.04-0.67-0.06-1c-0.06-1.44-0.06-0.33-0.02,3.32
			c0.01-0.22,0.02-0.44,0.04-0.66c0.05-0.55,0.15-1.09,0.32-1.61c0.31-0.96,0.84-1.87,1.6-2.54c1.43-1.28,3.92-1.7,5.48-0.37
			c0.39,0.34,0.68,0.77,0.85,1.26c0.1,0.27,0.14,0.53,0.19,0.81c0.36,1.93,0.23-5.83,0.01-3.4c-0.14,1.54-0.24,3.01-0.25,4.56
			c0,2.17-0.42,5.89,2.63,6.25c-0.16-0.02,0.23-4.97,0-5c-0.84-0.1-1.54-0.55-2.01-1.25c-0.22-0.33-0.38-0.7-0.48-1.08
			c-0.03-0.11-0.04-0.23-0.06-0.34c0,0.58-0.01,1.17-0.01,1.75c-0.06,1.83-0.06,2.33,0.02,1.5c0.04-0.29,0.07-0.59,0.11-0.88
			c0.19-1.56,0.13-3.15,0.12-4.72c0-1.1,0.11-2.34-0.34-3.38c-0.73-1.69-2.76-2.16-4.41-1.71c-1.77,0.48-3.01,2.04-3.5,3.75
			c-0.34,1.19-0.33,2.43-0.34,3.66c-0.01,1.98-0.03,3.96,0.1,5.93c0-1.64,0-3.27,0.01-4.91c-0.24-0.42-0.36-0.83-0.38-1.31
			c0,1.61,0,3.21,0,4.82c0.04-1.16,0.59-2.21,0.75-3.34c0.09-0.64,0.07-1.3,0.07-1.95c0.01-1.28,0.06-2.57-0.02-3.85
			c-0.05-0.88-0.38-1.78-1.25-2.14c-0.74-0.31-1.83-0.13-2.13,0.69c-0.06,0.17-0.02,0.6-0.02,0.73c-0.01,0.59-0.01,1.18-0.01,1.77
			c0,0.59,0,1.18,0.01,1.77C296.91,275.28,296.99,275.64,296.92,275.82L296.92,275.82z"/>
	</g>
</g>
<g>
	<g>
		<path class="st8" d="M217.04,269.48c-3.95-2.31-10.49-1.24-12.4,3.31c-0.76,1.81-0.45,4.06-0.43,5.95
			c0.01,1.37,0.1,2.61,1.02,3.71c1.75,2.08,4.82,1.82,6.95,0.52c2.85-1.74,3.54-5.13,4.03-8.18c0.13-0.8,0.02-1.7,0.02-2.5
			c0-0.8-0.16-1.72-0.02-2.5c-0.24,1.43-0.34,2.81-0.35,4.26c-0.01,1.82-0.24,3.91,0.27,5.69c0.66,2.27,3.08,3.91,5.43,3.24
			c0.13-0.04,0.02-2.28,0.02-2.5c0-0.2-0.12-2.47-0.02-2.5c-1.6,0.46-3.28-0.17-4.4-1.37c-0.56-0.61-0.92-1.35-1.11-2.16
			c-0.06-0.24-0.08-0.49-0.13-0.74c0.77,3.74-0.15,4.44,0.04,2.74c0.06-0.56,0.15-1.11,0.24-1.66c0-1.67,0-3.33,0-5
			c-0.54,3.37-1.39,7.02-4.79,8.59c-1.38,0.64-3.03,0.87-4.48,0.3c-1.59-0.63-2.65-2.15-2.71-3.85c0,1.61,0,3.21,0,4.82
			c0.1-2.96,2.61-5.09,5.26-5.9c2.48-0.76,5.28-0.59,7.54,0.73c-0.16-0.09,0.02-2.24,0.02-2.5c0-0.59,0-1.18-0.01-1.77
			C217.06,270.12,217.11,269.52,217.04,269.48L217.04,269.48z"/>
	</g>
</g>
</svg>
