<?xml version="1.0" encoding="utf-8"?>
<!-- Generator: Adobe Illustrator 23.0.5, SVG Export Plug-In . SVG Version: 6.00 Build 0)  -->
<svg version="1.1" id="Layer_1" xmlns="http://www.w3.org/2000/svg" xmlns:xlink="http://www.w3.org/1999/xlink" x="0px" y="0px"
	 viewBox="0 0 550 400" style="enable-background:new 0 0 550 400;" xml:space="preserve">
<style type="text/css">
	.st0{fill:url(#SVGID_1_);}
	.st1{fill:url(#SVGID_2_);}
	.st2{fill:url(#SVGID_3_);}
	.st3{fill:url(#SVGID_4_);}
</style>
<g>
	<g>
		<linearGradient id="SVGID_1_" gradientUnits="userSpaceOnUse" x1="31.116" y1="205.9978" x2="517.9662" y2="205.9978">
			<stop  offset="0" style="stop-color:#FFFFFF"/>
			<stop  offset="1" style="stop-color:#000000"/>
		</linearGradient>
		<path class="st0" d="M34.73,368.54c83.16-31.56,102.73-126.49,140.07-196.87c19-35.82,44.82-68.05,82.97-84.32
			c38.16-16.27,80.85-17.01,121.64-18.01c47.16-1.15,96.3-3.14,138.58-26.45c-2.4-3.12-4.81-6.23-7.21-9.35
			c-60.77,60.6-62.89,153.79-110.79,222.33c-22.07,31.58-51.73,57.8-85.69,75.96c-38.25,20.46-81.4,30.61-124.38,34.48
			c-52.88,4.76-106,0.46-158.76-3.78c-7.64-0.61-7.6,11.3,0,11.91c91.04,7.32,186.69,14.12,272.34-24.1
			c36.2-16.16,68.57-40.75,93.77-71.37c12.83-15.58,23.84-32.52,32.74-50.63c9.83-20,17.39-41.02,24.7-62.04
			c15.34-44.13,30.6-90.55,64.48-124.34c4.83-4.82-1.31-12.61-7.21-9.35c-37.76,20.82-81.71,23.43-123.91,24.6
			c-40.54,1.13-82.17,1.14-121.1,14.03c-19.2,6.36-37.03,15.89-52.5,28.95c-15.26,12.88-27.85,28.78-38.48,45.61
			c-23.1,36.55-36.47,77.98-55.44,116.61c-19.21,39.13-46.62,78.56-88.98,94.63C24.47,359.75,27.55,371.27,34.73,368.54
			L34.73,368.54z"/>
	</g>
</g>
<g>
	<g>
		<linearGradient id="SVGID_2_" gradientUnits="userSpaceOnUse" x1="161.2087" y1="224.9526" x2="281.2752" y2="224.9526">
			<stop  offset="0" style="stop-color:#FFFFFF"/>
			<stop  offset="1" style="stop-color:#000000"/>
		</linearGradient>
		<path class="st1" d="M269.45,139.53c-20.92,8.99-40.32,21.07-57.67,35.82c-7.67,6.52-16.25,13.92-18.24,24.33
			c-1.93,10.09,3,20.01,13.06,23.14c10.17,3.17,22.24,0.21,32.55-0.84c6.14-0.62,12.29-1.26,18.43-1.87
			c4.3-0.43,9.83-1.52,13.94,0.33c4.68,2.1,3.6,7.73,1.27,11.27c-3.02,4.58-8.12,7.85-12.45,11.06c-9.4,6.97-19.07,13.58-28.98,19.8
			c-22.7,14.24-46.65,26.47-71.53,36.42c-7.03,2.81-3.96,14.33,3.17,11.48c22.22-8.89,43.79-19.33,64.38-31.52
			c10.33-6.12,20.42-12.64,30.22-19.56c8.73-6.16,19.62-12.48,25.48-21.67c5.18-8.13,5.19-19.69-2.95-25.9
			c-8.04-6.13-19.09-3.96-28.36-3.02c-11.97,1.22-24.42,3.61-36.46,3.36c-4.57-0.09-9.42-1.28-10.25-6.5
			c-0.82-5.18,2.64-9.94,5.98-13.48c17.47-18.5,41.26-32.4,64.44-42.37C282.48,146.79,276.42,136.53,269.45,139.53L269.45,139.53z"
			/>
	</g>
</g>
<g>
	<g>
		<linearGradient id="SVGID_3_" gradientUnits="userSpaceOnUse" x1="259.3319" y1="197.5168" x2="368.1127" y2="197.5168">
			<stop  offset="0" style="stop-color:#FFFFFF"/>
			<stop  offset="1" style="stop-color:#000000"/>
		</linearGradient>
		<path class="st2" d="M254.65,270.49c5.97,13.34,20.3,22.09,34.93,20.72c16.36-1.54,27.72-13.33,32.35-28.54
			c5.23-17.18,5.73-36.11,7.73-53.86c1.99-17.58,4.64-35.23,10.83-51.89c6.07-16.34,15.86-31.81,30.35-41.89
			c6.24-4.35,0.3-14.67-6.01-10.28c-24.39,16.98-36.91,45.03-42.58,73.42c-3.39,16.97-4.79,34.24-6.76,51.41
			c-1.6,13.99-1.91,34.02-13.4,44.08c-12.49,10.93-30.7,5.27-37.16-9.17C261.81,257.5,251.55,263.55,254.65,270.49L254.65,270.49z"
			/>
	</g>
</g>
<g>
	<g>
		<linearGradient id="SVGID_4_" gradientUnits="userSpaceOnUse" x1="381.1091" y1="95.7757" x2="424.0427" y2="95.7757">
			<stop  offset="0" style="stop-color:#FFFFFF"/>
			<stop  offset="1" style="stop-color:#000000"/>
		</linearGradient>
		<path class="st3" d="M387.32,101.25c5.54-13.4,23.41-6.65,32.96-2.95c0.53-3.9,1.06-7.8,1.58-11.69
			c-14.17,1.38-27.59,5.45-40.03,12.41c-6.69,3.74-0.69,14.03,6.01,10.28c10.52-5.88,22.01-9.61,34.03-10.78
			c6.79-0.66,7.96-9.22,1.58-11.69c-9.11-3.53-18.47-6.63-28.34-4.87c-9.19,1.64-15.77,7.67-19.27,16.13
			C372.92,105.16,384.43,108.24,387.32,101.25L387.32,101.25z"/>
	</g>
</g>
</svg>
