<?xml version="1.0" encoding="utf-8"?>
<!-- Generator: Adobe Illustrator 23.0.5, SVG Export Plug-In . SVG Version: 6.00 Build 0)  -->
<svg version="1.0" id="Layer_1" xmlns="http://www.w3.org/2000/svg" xmlns:xlink="http://www.w3.org/1999/xlink" x="0px" y="0px"
	 viewBox="0 0 550 400" style="enable-background:new 0 0 550 400;" xml:space="preserve">

<rect x="133.47" y="304.47" class="st0" width="306.89" height="51.57"/>
<text transform="matrix(1 0 0 1 133.4683 339.0273)" class="st1 st2 st3">Sayantan jana</text>
<g>
	<g>
		<path class="st1" d="M290.14,66.33c-27.91,11.11-54.95,24.28-80.75,39.69c-12.69,7.57-25.52,15.43-37.26,24.43
			c-10.11,7.76-17.01,22.76-4.96,32.37c5.37,4.29,12.18,5.2,18.86,5.14c8.08-0.07,16.16-0.44,24.24-0.67
			c16.67-0.48,33.33-0.95,50-1.43c3.4-0.1,18.74-2.53,19.74,2.68c0.88,4.62-11.52,10.57-14.45,12.46
			c-12.7,8.21-25.69,15.99-38.92,23.33c-29.99,16.63-61.24,30.9-93.43,42.71c-7.13,2.62-4.05,14.13,3.17,11.48
			c28.32-10.39,55.98-22.57,82.69-36.59c13.4-7.03,26.55-14.51,39.44-22.43c6.44-3.96,12.82-8.03,19.13-12.2
			c5.21-3.45,10.82-7.23,13.2-13.29c2.32-5.89,0.42-12.24-4.49-16.16c-5.51-4.4-12.52-4.29-19.22-4.11
			c-16.67,0.47-33.33,0.95-50,1.43c-8.17,0.23-16.34,0.47-24.51,0.7c-5.39,0.15-16.07,1.97-19.4-3.82
			c-3.61-6.26,6.18-12.35,10.3-15.22c6.18-4.3,12.45-8.46,18.81-12.5c28.79-18.3,59.28-33.92,90.98-46.54
			C300.34,75.02,297.27,63.5,290.14,66.33L290.14,66.33z" stroke="white" stroke-width="4"/>
	</g>
</g>
<g>
	<g>
		<path class="st1" d="M241.93,216.35c5.02,20.04,23.37,34.58,44.23,33.88c20.53-0.68,36.74-15.72,45.11-33.57
			c10.13-21.59,12.36-46.23,16.55-69.44c4.01-22.19,9.18-44.74,21.08-64.18c12.03-19.65,32.13-35.51,55.94-35.96
			c7.65-0.15,7.68-12.05,0-11.91c-42.55,0.82-69.54,38.36-80.85,75.55c-6.71,22.07-9.28,45.08-13.73,67.65
			c-3.8,19.25-8.92,41.53-25.99,53.54c-19.08,13.43-45.18,3.92-50.85-18.74C251.55,205.75,240.06,208.9,241.93,216.35L241.93,216.35
			z" stroke="white" stroke-width="4"/>
	</g>
</g>
<g>
	<g>
		<path class="st1" d="M448.37,40.42c1.93-6.83,16.14-1.95,20.82-1.97c8.11-0.03,15.74-3.66,21.02-9.77
			c4.98-5.77-3.4-14.23-8.42-8.42c-2.91,3.37-6.51,5.75-11.01,6.22c-5.11,0.53-10.19-1.27-15.29-1.36
			c-8.14-0.13-16.28,3.9-18.6,12.13C434.81,44.64,446.29,47.8,448.37,40.42L448.37,40.42z" stroke="white" stroke-width="4"/>
	</g>
</g>
<g>
	<g>
		
	</g>
</g>
<style>
		.st0{fill:none;}
	        .st1{fill:#1B1464;}
	        .st2{font-family:'BrushScriptMT';}
	        .st3{font-size:50px;}
		.st1{
			stroke-dasharray: 800;
			stroke-dashoffset: 800;
			-webkit-animation: dash 1s linear forwards 0.5s;
			-o-animation: dash 1s linear forwards 0.5s;
			-moz-animation: dash 1s linear forwards 0.5s;
			animation: dash 1s linear forwards 0.5s;
		}
		.st2{
			stroke-dasharray: 800;
			stroke-dashoffset: 800;
			-webkit-animation: dash 1s linear forwards 0.5s;
			-o-animation: dash 1s linear forwards 0.5s;
			-moz-animation: dash 1s linear forwards 0.5s;
			animation: dash 1s linear forwards 0.5s;
		}
	        @-webkit-keyframes dash{
			from{
				stroke-dashoffset: 800;
			}
			to{
				stroke-dashoffset: 0;
			}
		}
</style>	
</svg>
